<?xml version="1.0" encoding="UTF-8" standalone="no"?>
<!-- Created with Inkscape (http://www.inkscape.org/) -->

<svg
   width="35.44767mm"
   height="35.44767mm"
   viewBox="0 0 35.44767 35.44767"
   version="1.1"
   id="svg258"
   xml:space="preserve"
   xmlns="http://www.w3.org/2000/svg"
   xmlns:svg="http://www.w3.org/2000/svg"><defs
     id="defs255" /><g
     id="layer1"
     transform="translate(-44.206448,-123.48306)"><path
       d="m 65.195494,134.40838 -6.739571,6.9e-4 h -0.797096 v 20.25843 h 7.534019 c 0.816958,-9e-5 1.628619,-0.0406 2.105288,-0.12247 4.409189,-0.76135 7.573741,-3.87956 8.222541,-8.10338 0.250251,-1.64186 0.07666,-3.99872 -0.402521,-5.46845 -0.470048,-1.44325 -1.549174,-3.05863 -2.63492,-3.97224 -2.092047,-1.74779 -4.43567,-2.58196 -7.255962,-2.58196 -0.0079,0 -0.0151,-1e-5 -0.02264,0 z m 0.02264,4.8329 c 2.317141,0 4.144372,1.23669 4.832894,3.27048 0.399873,1.18372 0.429002,2.64816 0.07666,3.86631 -0.477993,1.6551 -1.81399,2.92622 -3.495572,3.32344 h -6.76e-4 c -0.447539,0.10553 -3.045385,0.15095 -3.535295,0.143 v -10.60588 c 0,-0.008 2.118529,-6.9e-4 2.118529,-6.9e-4 z"
       id="path441"
       style="stroke-width:0.0861977" /><path
       d="m 50.529271,132.84665 c -0.61967,-0.24627 -1.102959,-0.69381 -1.403526,-1.30819 -0.226417,-0.45151 -0.264816,-0.62496 -0.264816,-1.1877 0,-0.80636 0.240983,-1.3638 0.828875,-1.89343 0.572003,-0.52699 1.05132,-0.71103 1.853713,-0.71103 1.137385,0 2.012602,0.55346 2.476031,1.56241 0.458131,0.99306 0.209204,2.25094 -0.587892,2.96594 -0.565383,0.5111 -0.993061,0.68455 -1.774268,0.71633 -0.538901,0.0225 -0.78518,-0.009 -1.126793,-0.14433 z"
       id="path443"
       style="stroke-width:0.0861977" /><path
       d="m 48.860929,144.76338 v -9.95709 h 5.428731 v 19.86121 h -5.428731 z"
       id="path451"
       style="stroke-width:0.0861977" /></g></svg>
