<?xml version="1.0" encoding="UTF-8"?>
<svg width="115mm" height="28mm" version="1.1" viewBox="0 0 115 28" xmlns="http://www.w3.org/2000/svg">
 <g stroke-width=".0651">
  <path d="m51.6 21.6c-1.99-0.358-3.92-1.58-4.98-3.14-1.08-1.6-1.49-3.95-1.07-6.14 0.672-3.54 3.77-5.91 7.74-5.91 2.14 0 3.9 0.628 5.49 1.95 0.824 0.688 1.63 1.91 1.99 3 0.362 1.11 0.494 2.89 0.305 4.13-0.487 3.19-2.88 5.54-6.21 6.12-0.736 0.127-2.54 0.122-3.26-8e-3zm2.76-3.64c1.26-0.298 2.28-1.26 2.64-2.51 0.266-0.923 0.244-2.03-0.0579-2.92-0.519-1.53-1.9-2.47-3.65-2.47-1.91 0-3.31 1.06-3.79 2.86-0.152 0.579-0.15 1.77 5e-3 2.34 0.264 0.971 0.869 1.81 1.63 2.27 0.814 0.49 2.18 0.67 3.22 0.424z"/>
  <path d="m89.8 21.6c-1.99-0.358-3.92-1.58-4.98-3.14-1.08-1.6-1.49-3.95-1.07-6.14 0.672-3.54 3.77-5.91 7.74-5.91 2.14 0 3.9 0.628 5.49 1.95 0.824 0.688 1.63 1.91 1.99 3 0.362 1.11 0.494 2.89 0.305 4.13-0.487 3.19-2.88 5.54-6.21 6.12-0.736 0.127-2.54 0.122-3.26-8e-3zm2.76-3.64c1.26-0.298 2.28-1.26 2.64-2.51 0.266-0.923 0.244-2.03-0.0579-2.92-0.519-1.53-1.9-2.47-3.65-2.47-1.91 0-3.31 1.06-3.79 2.86-0.152 0.579-0.15 1.77 5e-3 2.34 0.264 0.971 0.869 1.81 1.63 2.27 0.814 0.49 2.18 0.67 3.22 0.424z"/>
  <path d="m74.4 6.37-5.09 5.2e-4h-0.602v15.3h5.69c0.617-7e-5 1.23-0.0307 1.59-0.0925 3.33-0.575 5.72-2.93 6.21-6.12 0.189-1.24 0.0579-3.02-0.304-4.13-0.355-1.09-1.17-2.31-1.99-3-1.58-1.32-3.35-1.95-5.48-1.95-6e-3 0-0.0114-1e-5 -0.0171 0zm0.0171 3.65c1.75 0 3.13 0.934 3.65 2.47 0.302 0.894 0.324 2 0.0579 2.92-0.361 1.25-1.37 2.21-2.64 2.51h-5.1e-4c-0.338 0.0797-2.3 0.114-2.67 0.108v-8.01c0-6e-3 1.6-5.2e-4 1.6-5.2e-4z"/>
  <path d="m1.59 4.56c-0.468-0.186-0.833-0.524-1.06-0.988-0.171-0.341-0.2-0.472-0.2-0.897 0-0.609 0.182-1.03 0.626-1.43 0.432-0.398 0.794-0.537 1.4-0.537 0.859 0 1.52 0.418 1.87 1.18 0.346 0.75 0.158 1.7-0.444 2.24-0.427 0.386-0.75 0.517-1.34 0.541-0.407 0.017-0.593-7e-3 -0.851-0.109z"/>
  <path d="m63.8 21.6c-0.468-0.186-0.833-0.524-1.06-0.988-0.171-0.341-0.2-0.472-0.2-0.897 0-0.609 0.182-1.03 0.626-1.43 0.432-0.398 0.794-0.537 1.4-0.537 0.859 0 1.52 0.418 1.87 1.18 0.346 0.75 0.158 1.7-0.444 2.24-0.427 0.386-0.75 0.517-1.34 0.541-0.407 0.017-0.593-7e-3 -0.851-0.109z"/>
  <path d="m22.2 13.6v-7.52l7.04 0.0336 1.97 4.82c1.09 2.65 2 4.86 2.03 4.91 0.0383 0.0614 0.7-1.48 2.07-4.83l2.02-4.92 7-1e-3v15h-4.1l-0.0332-12.1-4.77 12.1-4.28 0.0336-2.34-5.94c-1.29-3.27-2.38-6.01-2.42-6.1-0.0692-0.134-0.0845 0.914-0.0866 5.94l-0.0022 6.1h-4.1z"/>
  <path d="m11.2 15.6-0.0166-5.68-5.5-0.034v-3.64h15.2v3.64l-5.63 0.034-0.0332 11.4h-4.03z"/>
  <path d="m0.33 13.6v-7.52h4.1v15h-4.1z"/>
 </g>
 <path d="m107 16.9h-2.34v4.49h-3.57v-14.8h5.9c1.78 0 3.17 0.474 4.2 1.42 1.02 0.949 1.53 2.29 1.53 3.74 0 1.44-0.512 2.97-1.53 3.84-1.02 0.867-2.42 1.3-4.2 1.3zm-2.34-7.55v4.8h2.34c0.745 0 1.28-0.186 1.62-0.559 0.339-0.373 0.508-1.23 0.508-1.81 0-0.603-0.169-1.28-0.508-1.74-0.332-0.461-0.871-0.691-1.62-0.691z" stroke="#000" stroke-width=".55"/>
</svg>
