<?xml version="1.0" encoding="UTF-8"?>
<svg width="76.4mm" height="76.4mm" version="1.1" viewBox="0 0 76.4 76.4" xmlns="http://www.w3.org/2000/svg">
 <g transform="translate(-53.8 -171)">
  <path d="m57.7 247c3.46e-4 -0.0264 0.412-1.26 0.914-2.75 0.502-1.49 0.936-2.79 0.963-2.9l0.05-0.195-0.244 0.0398c-0.134 0.022-0.39 0.0788-0.567 0.126-0.316 0.0848-0.631 0.161-1.88 0.457-0.339 0.0802-1 0.237-1.47 0.348-1.4 0.333-1.64 0.388-1.67 0.388-0.0176 0-0.032-0.062-0.032-0.138 0-0.126 0.0528-0.151 0.602-0.29 0.331-0.0839 0.906-0.222 1.28-0.307 0.372-0.0852 1.05-0.244 1.5-0.353 0.452-0.109 1.13-0.267 1.5-0.352 0.37-0.0846 0.694-0.167 0.721-0.183 0.0264-0.0163-1.22-0.662-2.77-1.44-2.78-1.39-2.82-1.41-2.82-1.58v-0.176l6.14 3.09 0.235-0.134c0.129-0.0739 2.8-1.42 5.93-2.99 3.13-1.57 5.7-2.87 5.71-2.89 0.0081-0.0229-0.605-0.661-1.36-1.42-1.15-1.15-1.37-1.39-1.31-1.47 0.0572-0.0765 0.0547-0.0791-0.0156-0.0163-0.0702 0.0626-0.578-0.42-3.14-2.99l-3.06-3.06-0.348 0.0975c-0.191 0.0536-0.652 0.186-1.02 0.294-1.08 0.314-2 0.577-4.3 1.23-1.19 0.338-2.38 0.678-2.64 0.757-0.804 0.238-0.806 0.238-0.806 0.0654 0-0.105 0.0432-0.166 0.144-0.204 0.0794-0.0302 0.195-0.155 0.256-0.278 0.126-0.25 0.601-1.08 1.16-2.03 0.206-0.349 0.375-0.647 0.375-0.662 0-0.0149 0.069-0.137 0.153-0.27 0.0844-0.134 0.212-0.351 0.284-0.483 0.0719-0.132 0.31-0.544 0.53-0.916 0.219-0.372 0.525-0.9 0.679-1.17 0.154-0.275 0.586-1.03 0.96-1.67l0.679-1.17-0.154-0.284c-0.0849-0.156-0.174-0.284-0.198-0.284-0.0365 0-0.917 1.44-0.99 1.62-0.0132 0.0323-0.0873 0.16-0.165 0.283-0.0774 0.123-0.189 0.308-0.247 0.411-0.384 0.675-0.913 1.55-1.01 1.67-0.0621 0.0789-0.113 0.173-0.113 0.21s-0.0641 0.161-0.143 0.276c-0.0784 0.115-0.194 0.3-0.258 0.41-0.181 0.315-1.25 2.14-1.62 2.76-0.239 0.404-0.331 0.518-0.332 0.415-5.18e-4 -0.0788 0.102-0.317 0.228-0.529 0.126-0.212 0.367-0.623 0.537-0.914 0.17-0.291 0.41-0.695 0.535-0.899 0.125-0.204 0.227-0.383 0.227-0.398 0-0.0151 0.102-0.192 0.226-0.393 0.223-0.36 1.04-1.74 1.85-3.13 0.226-0.388 0.473-0.803 0.55-0.924 0.0763-0.12 0.139-0.234 0.139-0.252 0-0.0182 0.106-0.196 0.235-0.395 0.129-0.199 0.235-0.385 0.235-0.414 0-0.0657-0.371-0.684-0.411-0.685-0.0162-5.1e-4 -0.291 0.455-0.611 1.01-0.32 0.557-0.653 1.13-0.739 1.28-0.214 0.359-0.971 1.66-2.53 4.37-0.316 0.547-0.441 0.72-0.455 0.628-0.0109-0.0717 0.0893-0.31 0.231-0.549 0.407-0.687 0.597-1.01 1.2-2.07 0.315-0.549 0.645-1.12 0.734-1.26 0.275-0.451 1.95-3.37 2.01-3.5 0.0483-0.106 0.0276-0.18-0.11-0.392-0.0932-0.144-0.197-0.308-0.232-0.366-0.0523-0.088-0.167 0.0792-0.719 1.05-0.361 0.634-0.715 1.25-0.785 1.38-0.0701 0.122-0.225 0.394-0.344 0.604-0.119 0.21-0.317 0.554-0.439 0.764-0.123 0.21-0.341 0.593-0.485 0.852-0.746 1.34-1.04 1.82-1.06 1.7-0.0103-0.072 0.295-0.666 0.749-1.46 0.421-0.733 0.766-1.35 0.766-1.36 0-0.017 0.0925-0.175 0.206-0.352 0.113-0.177 0.206-0.335 0.206-0.352 0-0.017 0.0925-0.176 0.206-0.352 0.113-0.177 0.206-0.333 0.206-0.348 0-0.0147 0.305-0.557 0.678-1.2l0.678-1.18-0.106-0.16c-0.0581-0.0881-0.135-0.213-0.171-0.277-0.0883-0.159-0.148-0.139-0.278 0.0954-0.126 0.225-0.801 1.4-1.48 2.58-0.251 0.436-0.523 0.912-0.605 1.06-0.0819 0.145-0.204 0.36-0.271 0.478-0.0674 0.117-0.268 0.469-0.446 0.782-0.237 0.416-0.328 0.535-0.342 0.444-0.0106-0.0685 0.0753-0.283 0.191-0.478 0.116-0.194 0.21-0.362 0.21-0.373s0.159-0.289 0.352-0.617c0.194-0.328 0.352-0.604 0.352-0.613 0-0.0173 0.167-0.309 1.26-2.21 0.952-1.65 0.872-1.45 0.713-1.72-0.0741-0.125-0.157-0.228-0.185-0.228-0.0514 1.8e-4 -1.27 2.09-2.13 3.65-0.0801 0.145-0.195 0.334-0.255 0.42-0.06 0.0857-0.11 0.178-0.111 0.206-7.96e-4 0.0273-0.0933 0.194-0.206 0.37-0.161 0.252-0.204 0.291-0.204 0.184 0-0.0751 0.0925-0.289 0.206-0.475 0.113-0.186 0.206-0.357 0.206-0.38 0-0.0231 0.0491-0.112 0.109-0.198 0.06-0.0858 0.197-0.314 0.303-0.508 0.29-0.527 0.38-0.686 0.909-1.62 0.267-0.468 0.54-0.949 0.607-1.07 0.0668-0.119 0.185-0.317 0.262-0.441 0.197-0.314 0.212-0.38 0.126-0.551-0.163-0.323-0.234-0.32-0.421 0.0166-0.0947 0.171-0.378 0.668-0.63 1.1-0.252 0.436-0.527 0.915-0.612 1.06-0.962 1.7-1.03 1.81-1.05 1.66-0.0104-0.0831 0.0061-0.182 0.0368-0.221 0.0307-0.0384 0.367-0.612 0.747-1.27 0.38-0.662 0.9-1.57 1.16-2.01l0.464-0.805-0.0989-0.194c-0.0544-0.106-0.151-0.268-0.215-0.358l-0.116-0.165-0.229 0.391c-0.126 0.215-0.229 0.398-0.229 0.406 0 8e-3 -0.136 0.25-0.302 0.537-0.166 0.287-0.36 0.628-0.431 0.757-0.534 0.969-0.766 1.33-0.783 1.22-0.0159-0.106 0.204-0.517 1.33-2.48 0.0833-0.145 0.209-0.371 0.278-0.502 0.0697-0.13 0.162-0.294 0.206-0.363 0.0846-0.136 0.0502-0.243-0.172-0.536l-0.105-0.138-0.216 0.362c-0.119 0.199-0.216 0.373-0.216 0.386 0 0.0133-0.101 0.19-0.225 0.392-0.124 0.202-0.305 0.514-0.403 0.691-0.398 0.721-0.458 0.804-0.478 0.664-0.0104-0.0732 0.0723-0.271 0.191-0.456 0.115-0.18 0.209-0.336 0.209-0.347 0-0.0109 0.136-0.255 0.301-0.542 0.166-0.287 0.38-0.668 0.476-0.845 0.0961-0.178 0.201-0.355 0.232-0.394 0.0394-0.0485 0.0154-0.146-0.0758-0.308-0.0734-0.131-0.148-0.237-0.167-0.237-0.0183 4e-5 -0.109 0.139-0.202 0.308-0.538 0.986-0.949 1.63-0.966 1.52-0.0103-0.0664 0.0732-0.273 0.186-0.459 0.112-0.186 0.362-0.612 0.556-0.947l0.352-0.608-0.179-0.287c-0.0983-0.158-0.197-0.287-0.218-0.287-0.0218 0-0.183 0.258-0.358 0.573-0.225 0.405-0.324 0.537-0.336 0.45-0.0098-0.0674 0.116-0.354 0.279-0.636 0.163-0.282 0.297-0.539 0.297-0.571 0-0.0747-0.254-0.52-0.297-0.52-0.0182-2.4e-4 -0.0824 0.0987-0.142 0.22-0.0894 0.18-0.114 0.199-0.135 0.105-0.0142-0.0634 0.0218-0.203 0.0799-0.311 0.0996-0.185 0.1-0.206 0.0067-0.364-0.11-0.186-0.136-0.707-0.0359-0.707 0.0347 0 0.9-0.453 1.92-1.01 1.02-0.554 2.06-1.11 2.3-1.24 0.392-0.209 3.95-2.13 6.3-3.4 0.863-0.467 0.869-0.469 0.999-0.36 0.13 0.11 0.13 0.11 0.0276-0.0117-0.101-0.12-0.0946-0.126 0.399-0.396 0.276-0.151 0.525-0.275 0.554-0.275 0.0291 0 0.0672-0.023 0.0845-0.0511s-0.345-0.211-0.804-0.406c-1.07-0.454-3.37-1.43-4.39-1.86-0.436-0.184-0.818-0.359-0.849-0.389-0.0307-0.0295-0.0878-0.0539-0.127-0.0539-0.0629 0-2.3-0.93-2.75-1.14-0.0969-0.0459-0.573-0.247-1.06-0.446-0.485-0.199-1.11-0.461-1.38-0.58-0.275-0.12-0.678-0.292-0.896-0.383-0.355-0.148-0.396-0.183-0.396-0.329v-0.164l0.602 0.254c0.699 0.294 3 1.27 3.39 1.44 0.946 0.409 3.18 1.35 3.2 1.35 0.0138 0 0.225 0.0925 0.47 0.206 0.245 0.113 0.458 0.206 0.474 0.206 0.0158 0 0.379 0.148 0.807 0.329 1.28 0.543 2.81 1.19 3.24 1.38 0.222 0.0968 0.413 0.166 0.424 0.155 0.016-0.0159-0.802-1.39-1.32-2.22-0.267-0.426-1.06-1.71-1.16-1.87-0.0687-0.116-0.234-0.383-0.368-0.593-0.134-0.21-0.276-0.448-0.316-0.529-0.0398-0.0809-0.167-0.292-0.284-0.47-0.263-0.401-1.35-2.16-1.44-2.33-0.0577-0.108-0.603-0.99-1.42-2.3-0.146-0.234-0.282-0.426-0.3-0.426-0.0186 0-0.377 0.0643-0.797 0.143-0.724 0.135-2.09 0.386-3.85 0.705-0.436 0.0792-0.918 0.162-1.07 0.184-0.27 0.0381-0.279 0.0345-0.279-0.109 0-0.129 0.0319-0.153 0.25-0.186 0.137-0.0209 0.752-0.13 1.37-0.243 2.89-0.53 3.33-0.61 3.85-0.701l0.558-0.0982 8.67-5.77-14.7-0.0298v-0.293h7.43c4.09 0 7.43-0.0201 7.43-0.0445 0-0.0661-11.7-11.8-11.8-11.8-0.0156 0.0156-0.71 1.39-1.54 3.05l-1.52 3.02-0.0174-0.299c-0.0167-0.287 0.043-0.42 1.45-3.23 1.46-2.92 1.47-2.94 1.96-4.41 0.487-1.48 0.49-1.48 0.657-1.48 0.136-4e-4 0.16 0.0191 0.128 0.102-0.0218 0.0565-0.251 0.736-0.509 1.51l-0.469 1.41 5.8 5.79c3.19 3.18 5.78 5.75 5.76 5.7-0.0181-0.0485-0.21-0.498-0.426-0.999s-0.427-0.99-0.469-1.09c-0.0418-0.0969-0.211-0.493-0.377-0.881-0.165-0.388-0.365-0.85-0.443-1.03-0.166-0.376-0.984-2.29-1.6-3.73-0.11-0.258-0.263-0.615-0.341-0.793-0.0779-0.178-0.356-0.825-0.619-1.44-0.263-0.614-0.54-1.26-0.616-1.44-0.0763-0.178-0.336-0.786-0.577-1.35-0.241-0.565-0.506-1.18-0.59-1.37-0.0836-0.187-0.152-0.352-0.152-0.367 0-0.0152 0.0727-0.0276 0.162-0.0275 0.153 1.1e-4 0.183 0.0506 0.566 0.954 0.222 0.525 0.655 1.54 0.962 2.25 0.307 0.711 0.618 1.44 0.691 1.62 0.0736 0.178 0.231 0.548 0.35 0.822 0.119 0.275 0.276 0.645 0.348 0.822 0.0722 0.178 0.174 0.416 0.225 0.529 0.119 0.259 0.873 2.01 1.54 3.58 0.282 0.662 0.724 1.69 0.981 2.29 0.257 0.598 0.536 1.25 0.619 1.44 0.0833 0.194 0.168 0.372 0.189 0.397 0.0204 0.0244 0.69-2.57 1.49-5.75 1.37-5.5 1.44-5.8 1.35-5.9-0.0563-0.0541-0.763-0.59-1.57-1.19-0.808-0.601-1.58-1.18-1.72-1.28-0.136-0.104-0.356-0.269-0.49-0.366l-0.243-0.176 0.239-0.018c0.221-0.0166 0.291 0.0213 0.92 0.499 0.375 0.284 0.756 0.57 0.847 0.635 0.0911 0.0646 0.593 0.441 1.12 0.837 0.522 0.396 0.961 0.72 0.975 0.72 0.0138 0 0.0251-0.608 0.0251-1.35v-1.35h0.35l0.0314 2.97 4.05 1.35c2.23 0.745 4.18 1.4 4.33 1.45 0.155 0.0548 0.307 0.0996 0.338 0.0996 0.0357 0 0.0567-1.09 0.0567-2.94v-2.94h0.276l0.0336 1.6c0.0185 0.88 0.024 2.2 0.0123 2.94-0.0242 1.51-0.0642 1.41 0.487 1.22 0.185-0.0666 2-0.676 4.04-1.35 2.04-0.678 3.82-1.27 3.96-1.33l0.256-0.0928-1.49-1.49c-1.48-1.48-1.49-1.49-1.28-1.49 0.199 0 0.296 0.0844 1.52 1.32 0.721 0.726 1.32 1.31 1.33 1.3 0.0519-0.0519 0.0637-0.299 0.0679-1.43l0.0045-1.19h0.294v2.83l0.162-0.0377c0.0888-0.0207 0.479-0.13 0.866-0.242 1.34-0.388 4.64-1.33 5.14-1.47 0.275-0.0752 1.2-0.343 2.06-0.594 1.4-0.411 1.62-0.46 2.14-0.479 0.323-0.0115 0.574-9e-3 0.558 6e-3 -0.0298 0.0281-1.68 0.514-2.76 0.812-1.06 0.294-1.16 0.321-3.17 0.904-1.08 0.313-2.02 0.583-2.09 0.598-0.0646 0.0158-0.435 0.12-0.822 0.233-0.388 0.112-0.943 0.272-1.23 0.356-0.291 0.0839-0.548 0.169-0.572 0.189-0.0343 0.0288 1.77 1.29 2.23 1.56 0.0554 0.0323 1.54 1.02 3.3 2.2l3.2 2.14 7.49-0.0112c4.12-6e-3 7.5-0.0214 7.51-0.0337 0.028-0.028 0.0862 0.212-1.16-4.77l-1.04-4.18h0.314l0.896 3.6c0.493 1.98 0.99 3.96 1.11 4.4l0.209 0.806 0.226-0.303c0.124-0.166 0.226-0.319 0.226-0.339 0-0.0342-0.458-1.89-1.54-6.22-0.43-1.73-0.494-2.08-0.351-1.92 0.0268 0.0302 0.48 1.8 1.01 3.93 0.527 2.13 0.976 3.91 0.998 3.96 0.0287 0.0558 0.0952 5e-3 0.226-0.173 0.215-0.292 0.214-0.287 0.0927-0.804-0.147-0.625-0.492-2.05-0.645-2.66-0.0771-0.307-0.205-0.836-0.283-1.17-0.193-0.829-0.536-2.29-0.643-2.75-0.0651-0.274-0.0695-0.367-0.0173-0.367 0.0384 0 0.113 0.178 0.167 0.396 0.335 1.37 0.575 2.37 1.08 4.48 0.313 1.31 0.572 2.38 0.577 2.39 6e-3 6e-3 0.0851-0.0834 0.178-0.2l0.169-0.212-0.131-0.593c-0.0721-0.326-0.207-0.91-0.3-1.3-0.0926-0.388-0.277-1.17-0.41-1.73-0.133-0.565-0.309-1.31-0.39-1.64-0.31-1.29-0.366-1.59-0.293-1.59 0.0411 0 0.146 0.32 0.255 0.778 0.425 1.78 0.785 3.32 1.04 4.45 0.357 1.56 0.321 1.48 0.526 1.21l0.166-0.218-0.0948-0.424c-0.0521-0.233-0.216-0.966-0.363-1.63s-0.332-1.48-0.411-1.82c-0.311-1.35-0.507-2.3-0.478-2.33 0.0677-0.0677 0.147 0.057 0.186 0.291 0.0226 0.137 0.131 0.646 0.24 1.13 0.11 0.485 0.266 1.18 0.348 1.56 0.304 1.38 0.572 2.56 0.636 2.81l0.066 0.255 0.276-0.374-0.215-1.04c-0.118-0.57-0.307-1.49-0.418-2.04s-0.268-1.32-0.349-1.7-0.146-0.751-0.146-0.808c0-0.148 0.11-0.126 0.146 0.0299 0.0541 0.234 0.447 2.17 0.527 2.6 0.125 0.672 0.51 2.58 0.538 2.67 0.0413 0.131 0.258-0.101 0.258-0.276 0-0.0806-0.0807-0.585-0.179-1.12-0.169-0.919-0.517-2.85-0.65-3.61-0.0581-0.331-0.0326-0.491 0.0556-0.348 0.0234 0.0379 0.129 0.553 0.235 1.14s0.257 1.42 0.336 1.84c0.0786 0.42 0.187 1.03 0.241 1.36 0.106 0.649 0.132 0.669 0.368 0.287 0.113-0.183 0.113-0.192 2e-3 -0.83-0.0619-0.355-0.205-1.19-0.318-1.85-0.113-0.662-0.235-1.37-0.272-1.57-0.065-0.36-0.0442-0.501 0.0573-0.39 0.0275 0.0302 0.0817 0.266 0.121 0.525 0.039 0.258 0.159 0.972 0.267 1.59 0.108 0.614 0.229 1.33 0.268 1.59 0.0996 0.647 0.121 0.672 0.319 0.373l0.166-0.251-0.273-1.68c-0.368-2.26-0.357-2.18-0.285-2.18 0.0837 0 0.0968 0.0564 0.273 1.17 0.295 1.86 0.401 2.47 0.437 2.47 0.0195-5.3e-4 0.104-0.0998 0.187-0.22 0.15-0.217 0.151-0.223 0.0757-0.689-0.0417-0.258-0.144-0.932-0.228-1.5-0.0835-0.565-0.166-1.07-0.182-1.13-0.0186-0.0627 2e-3 -0.103 0.0496-0.103 0.0591 0 0.138 0.358 0.3 1.37 0.121 0.751 0.219 1.43 0.217 1.5-2e-3 0.185 0.0596 0.165 0.254-0.0787l0.168-0.211-0.19-1.26c-0.104-0.693-0.173-1.28-0.153-1.3 0.0881-0.0881 0.145 0.129 0.266 1.01 0.0706 0.517 0.144 1.03 0.163 1.14l0.0346 0.202 0.138-0.16c0.0759-0.0882 0.155-0.227 0.175-0.308 0.0313-0.125-0.0704-1.04-0.191-1.71-0.0269-0.15-0.0141-0.191 0.0605-0.191 0.0663 0 0.0946 0.0535 0.0946 0.179 0 0.253 0.185 1.37 0.236 1.43 0.0236 0.0267 0.101-0.0323 0.171-0.131 0.12-0.168 0.124-0.208 0.0659-0.626-0.0762-0.548-0.0792-0.848-8e-3 -0.848 0.0295 0 0.0862 0.239 0.126 0.531l0.0726 0.531 0.173-0.164c0.166-0.157 0.172-0.18 0.136-0.531-0.0306-0.306-0.0218-0.367 0.053-0.367 0.0635 0 0.0898 0.0603 0.0898 0.206 0 0.261 0.0804 0.261 0.249 5.2e-4 0.107-0.166 0.17-0.205 0.327-0.206 0.176-5.2e-4 0.187 9e-3 0.117 0.105-0.21 0.288-1.34 1.8-1.63 2.19-0.184 0.242-0.621 0.824-0.971 1.29-0.349 0.468-0.822 1.1-1.05 1.4-0.229 0.3-0.468 0.622-0.533 0.716-0.0646 0.0934-0.514 0.692-0.999 1.33-0.485 0.639-0.921 1.22-0.969 1.29-0.0485 0.0698-0.213 0.294-0.366 0.498l-0.278 0.371 0.403 0.768c0.222 0.422 0.686 1.32 1.03 1.99 0.624 1.21 0.629 1.22 0.521 1.35-0.109 0.129-0.109 0.129 0.0159 0.0236 0.124-0.105 0.126-0.102 0.463 0.558 0.186 0.365 0.45 0.875 0.587 1.13s0.56 1.08 0.94 1.82c0.38 0.743 0.751 1.46 0.824 1.59 0.0728 0.129 0.409 0.777 0.748 1.44 0.339 0.662 0.761 1.48 0.939 1.82 0.178 0.339 0.471 0.901 0.652 1.25 0.307 0.59 0.333 0.623 0.4 0.499 0.103-0.191 0.344-0.644 0.665-1.25 0.154-0.291 0.472-0.885 0.706-1.32 0.234-0.436 0.544-1.02 0.689-1.29 0.145-0.275 0.721-1.36 1.28-2.4l1.02-1.9-0.487-2.91c-0.268-1.6-0.546-3.3-0.618-3.76-0.0722-0.468-0.188-1.17-0.257-1.56-0.296-1.66-0.496-2.84-0.536-3.17-0.0402-0.326-0.545-3.32-0.622-3.69-0.0311-0.149-0.0193-0.162 0.147-0.162 0.152 0 0.181 0.0225 0.181 0.142 0 0.0782 0.248 1.63 0.552 3.45 0.304 1.82 0.564 3.4 0.579 3.51 0.0149 0.113 0.111 0.681 0.213 1.26 0.209 1.19 0.514 3.01 0.741 4.41 0.209 1.29 0.32 1.93 0.341 1.95 0.01 0.01 0.677-1.3 1.48-2.9l1.47-2.92 0.0174 0.297c0.0166 0.283-0.0446 0.421-1.37 3.06-0.761 1.52-1.38 2.8-1.38 2.83 0 0.0384 0.033 0.0656 0.0734 0.0603 0.0404-6e-3 0.662-6e-3 1.38-2e-3l1.31 7e-3v0.292l-3 0.0314-0.383 0.734c-0.211 0.404-0.716 1.36-1.12 2.11-1.02 1.91-1.1 2.06-1.47 2.76-0.18 0.339-0.559 1.05-0.843 1.58s-0.507 0.975-0.495 0.987c0.0122 0.0122 0.375-0.0437 0.807-0.124 0.432-0.0805 1.31-0.243 1.96-0.361 0.646-0.118 1.66-0.304 2.26-0.414 0.598-0.11 1.36-0.249 1.69-0.309l0.602-0.109v0.153c0 0.151-0.0118 0.155-0.925 0.321-0.509 0.0927-1.4 0.256-1.98 0.364-2.39 0.441-3.31 0.609-3.72 0.677-0.234 0.0395-0.426 0.0883-0.426 0.108 0 0.0201 0.178 0.107 0.396 0.193 0.218 0.086 0.621 0.253 0.896 0.37 0.275 0.117 0.711 0.301 0.969 0.408 0.258 0.107 0.721 0.305 1.03 0.441 0.307 0.136 0.769 0.334 1.03 0.441s0.827 0.345 1.26 0.53 0.938 0.397 1.12 0.47c0.261 0.109 0.327 0.164 0.342 0.287 0.0103 0.084-6e-3 0.153-0.0367 0.153-0.0304 0-0.369-0.136-0.753-0.302s-0.816-0.349-0.962-0.406c-0.145-0.0571-0.568-0.235-0.94-0.395-0.641-0.276-1.35-0.578-2.47-1.05-0.677-0.287-1.37-0.585-1.76-0.753-0.177-0.0767-0.333-0.128-0.346-0.115-0.0138 0.0138 0.0562 0.191 0.155 0.393 0.423 0.863 1.68 3.46 2.45 5.07 0.202 0.42 0.558 1.16 0.793 1.64 0.234 0.485 0.591 1.22 0.794 1.64 0.202 0.42 0.592 1.23 0.867 1.79 2.33 4.79 2.22 4.55 2.22 4.92 0 0.278-0.0349 0.392-0.206 0.675-0.113 0.187-0.205 0.353-0.205 0.368 0 0.0152-0.0675 0.135-0.15 0.265-0.148 0.234-0.183 0.294-0.539 0.935-0.099 0.178-0.271 0.482-0.382 0.675-0.485 0.845-1.89 3.3-1.98 3.47-0.116 0.206-1.06 1.84-1.69 2.94-0.243 0.42-0.565 0.988-0.716 1.26s-0.693 1.23-1.2 2.11c-0.511 0.888-1.01 1.76-1.1 1.94-0.0955 0.178-0.223 0.393-0.284 0.479-0.0605 0.0857-0.11 0.168-0.11 0.182 0 0.0146-0.136 0.262-0.303 0.549-0.167 0.287-0.519 0.906-0.784 1.37-0.265 0.468-0.634 1.12-0.822 1.44-0.187 0.323-0.4 0.693-0.473 0.822-0.0729 0.129-0.305 0.539-0.516 0.91-0.211 0.371-0.376 0.682-0.367 0.691 9e-3 9e-3 0.147-0.0119 0.307-0.0463 0.28-0.06 0.3-0.0781 0.508-0.456 0.392-0.713 0.6-1.08 1.31-2.34 0.385-0.681 0.744-1.32 0.798-1.41 0.0538-0.0943 0.216-0.383 0.36-0.641 0.144-0.258 0.322-0.576 0.396-0.705 0.074-0.129 0.245-0.433 0.381-0.675 0.47-0.84 1.14-2.03 1.2-2.11 0.0318-0.0485 0.127-0.22 0.213-0.382 0.0851-0.162 0.254-0.465 0.374-0.675 0.381-0.662 1.2-2.11 1.67-2.97 0.252-0.452 0.529-0.941 0.617-1.09 0.088-0.145 0.274-0.476 0.413-0.734 0.139-0.258 0.5-0.901 0.801-1.43 0.301-0.527 0.548-0.966 0.548-0.975 0-9e-3 0.136-0.252 0.301-0.539 0.354-0.614 1.05-1.85 1.3-2.31 0.0969-0.178 0.212-0.375 0.255-0.439 0.076-0.112 0.0789-0.111 0.0787 0.0294 0 0.0799-0.0486 0.225-0.108 0.321-0.118 0.193-0.242 0.413-0.83 1.47-0.216 0.388-0.587 1.05-0.825 1.47-0.548 0.969-0.662 1.17-1.81 3.21-0.521 0.927-1.07 1.89-1.21 2.13-0.146 0.247-0.266 0.464-0.266 0.481 0 0.0173-0.0883 0.18-0.196 0.362-0.166 0.28-0.51 0.884-1.16 2.03-0.0727 0.129-0.19 0.341-0.26 0.47-0.0701 0.129-0.248 0.446-0.396 0.705-0.277 0.485-0.371 0.653-0.678 1.2-0.0989 0.178-0.328 0.584-0.509 0.903-0.181 0.319-0.329 0.59-0.329 0.601 0 0.0114-0.0925 0.165-0.206 0.342s-0.206 0.338-0.206 0.359c0 0.0209-0.0887 0.187-0.197 0.37-0.108 0.183-0.33 0.57-0.493 0.861-0.481 0.859-0.521 0.93-0.644 1.15-0.0642 0.113-0.243 0.425-0.397 0.693-0.154 0.268-0.267 0.5-0.251 0.516 0.0158 0.0157 0.144-2e-3 0.286-0.0405l0.258-0.0691 0.822-1.44c0.452-0.791 0.898-1.57 0.99-1.74 0.174-0.312 1.55-2.73 1.76-3.09 0.0653-0.113 0.164-0.285 0.219-0.382 0.227-0.398 0.713-1.24 0.763-1.32 0.142-0.231 0.738-1.27 0.759-1.32 0.0131-0.0328 0.161-0.298 0.328-0.588 0.167-0.291 0.392-0.687 0.498-0.881 0.165-0.3 1.26-2.23 1.75-3.08 0.0836-0.145 0.195-0.344 0.247-0.441 0.0521-0.0969 0.337-0.597 0.634-1.11s0.539-0.941 0.539-0.95c0-8e-3 0.159-0.283 0.352-0.612 0.194-0.328 0.352-0.607 0.352-0.619s0.0924-0.175 0.205-0.362c0.167-0.277 0.205-0.313 0.205-0.194-5.1e-4 0.0808-0.0695 0.266-0.154 0.411-0.223 0.385-0.273 0.473-1.21 2.12-0.911 1.6-0.977 1.72-1.28 2.26-0.108 0.194-0.241 0.418-0.296 0.499-0.0549 0.0808-0.21 0.354-0.345 0.608-0.135 0.254-0.412 0.742-0.616 1.09-0.382 0.644-1.46 2.53-1.8 3.15-0.106 0.194-0.339 0.604-0.517 0.91-0.178 0.307-0.488 0.849-0.688 1.2-0.2 0.355-0.566 0.997-0.813 1.43-0.247 0.429-0.448 0.792-0.448 0.806 0 0.0147-0.0925 0.171-0.206 0.348-0.113 0.177-0.206 0.337-0.206 0.356 0 0.0193-0.0925 0.18-0.206 0.356-0.113 0.177-0.206 0.334-0.206 0.35 0 0.0279-0.494 0.906-0.952 1.69-0.128 0.221-0.221 0.414-0.205 0.43 0.0158 0.0158 0.144-2e-3 0.284-0.0393 0.253-0.0674 0.461-0.204 0.461-0.302 0-0.0279 0.0624-0.149 0.139-0.27 0.0764-0.12 0.451-0.761 0.832-1.42 0.381-0.662 0.917-1.59 1.19-2.06 0.273-0.468 0.556-0.957 0.628-1.09 0.072-0.129 0.227-0.4 0.345-0.602 0.118-0.202 0.303-0.519 0.411-0.705 0.202-0.347 1.2-2.08 1.54-2.66 0.104-0.181 0.258-0.431 0.344-0.557 0.0854-0.126 0.155-0.251 0.155-0.278 0-0.027 0.0793-0.164 0.176-0.305 0.0969-0.141 0.176-0.27 0.176-0.287 0-0.0172 0.188-0.356 0.417-0.753 0.229-0.397 0.484-0.841 0.566-0.986 0.0817-0.145 0.312-0.542 0.512-0.881 0.2-0.339 0.637-1.09 0.971-1.67 0.89-1.55 1-1.72 1-1.57 0 0.0718-0.294 0.639-0.654 1.26s-0.845 1.46-1.08 1.86c-1.05 1.82-1.52 2.62-1.56 2.67-0.0254 0.0323-0.11 0.178-0.189 0.323-0.227 0.42-0.426 0.769-1.21 2.11-0.403 0.695-0.839 1.45-0.97 1.67-0.131 0.226-0.309 0.53-0.396 0.675-0.203 0.34-1.24 2.13-1.41 2.44-0.261 0.47-1.25 2.18-1.39 2.39-0.0763 0.12-0.139 0.233-0.139 0.251 0 0.0175-0.068 0.139-0.151 0.271-0.0831 0.132-0.14 0.25-0.127 0.263 0.0383 0.0383 0.654-0.156 0.731-0.231 0.0388-0.0377 0.174-0.253 0.3-0.48 0.126-0.226 0.329-0.583 0.451-0.793 0.122-0.21 0.272-0.469 0.333-0.576 0.314-0.549 0.616-1.07 0.784-1.36 0.401-0.69 2.29-3.98 2.43-4.23 0.0802-0.145 0.195-0.334 0.255-0.42 0.06-0.0857 0.109-0.173 0.109-0.194 0-0.0207 0.159-0.302 0.352-0.624s0.352-0.595 0.352-0.606c0-0.0104 0.137-0.254 0.304-0.541 0.167-0.287 0.393-0.681 0.502-0.875 0.109-0.194 0.384-0.67 0.611-1.06 0.356-0.607 0.742-1.28 1.4-2.44 0.0839-0.149 0.197-0.334 0.252-0.411l0.0997-0.14 3e-3 0.154c2e-3 0.0845-0.0448 0.217-0.103 0.294-0.0585 0.0771-0.313 0.51-0.566 0.962s-0.524 0.924-0.603 1.05c-0.0793 0.125-0.204 0.336-0.277 0.47-0.073 0.134-0.339 0.6-0.591 1.04-0.472 0.816-0.826 1.43-1.02 1.77-0.0607 0.107-0.246 0.429-0.412 0.717-0.166 0.287-0.302 0.533-0.302 0.546 0 0.0131-0.0925 0.168-0.206 0.345-0.113 0.177-0.206 0.332-0.206 0.345 0 0.0128-0.162 0.297-0.36 0.63-0.198 0.334-0.466 0.805-0.595 1.05-0.129 0.242-0.255 0.467-0.28 0.499-0.0245 0.0323-0.196 0.323-0.382 0.646-0.186 0.323-0.582 1.01-0.88 1.53-0.298 0.517-0.599 1.04-0.668 1.16-0.11 0.196-0.248 0.438-0.721 1.27-0.0622 0.109-0.105 0.206-0.0946 0.216 0.0187 0.0187 0.817-0.192 0.838-0.222 0.0312-0.0434 1.93-3.36 2.05-3.58 0.166-0.306 0.37-0.666 0.775-1.37 0.539-0.936 1.71-2.99 1.87-3.26 0.0812-0.145 0.353-0.621 0.603-1.06 0.251-0.436 0.513-0.899 0.584-1.03 0.0705-0.129 0.242-0.433 0.381-0.675s0.282-0.493 0.318-0.558c0.614-1.1 0.83-1.44 0.847-1.33 0.0111 0.0734-0.126 0.374-0.331 0.726-0.193 0.33-0.402 0.693-0.465 0.806-0.396 0.712-0.495 0.888-0.677 1.2-0.9 1.56-1.13 1.98-1.27 2.23-0.0876 0.162-0.517 0.915-0.953 1.67-0.437 0.759-0.882 1.54-0.989 1.73-0.108 0.194-0.31 0.546-0.45 0.783-0.14 0.237-0.254 0.438-0.254 0.447 0 9e-3 -0.408 0.726-0.906 1.59-0.498 0.868-0.9 1.59-0.892 1.59 8e-3 8e-3 0.224-0.0506 0.481-0.13 0.344-0.106 0.483-0.179 0.53-0.278 0.0349-0.0735 0.268-0.486 0.518-0.917 0.25-0.431 0.523-0.906 0.606-1.06 0.0835-0.15 0.442-0.775 0.798-1.39 0.355-0.615 0.72-1.25 0.81-1.42 0.0903-0.166 0.285-0.505 0.432-0.754 0.147-0.249 0.268-0.464 0.268-0.478 0-0.0141 0.069-0.135 0.153-0.269 0.0844-0.134 0.212-0.351 0.284-0.483 0.305-0.561 2.22-3.89 2.27-3.94 0.0312-0.0337 0.0518-7e-3 0.0518 0.067 0 0.0676-0.294 0.635-0.654 1.26-1.05 1.82-2.7 4.7-2.86 4.98-0.0816 0.145-0.438 0.767-0.793 1.38-0.638 1.1-0.77 1.34-1.06 1.85-0.0809 0.145-0.268 0.474-0.416 0.731-0.148 0.256-0.258 0.477-0.245 0.49 0.0131 0.0131 0.169-0.0186 0.348-0.0704 0.226-0.0656 0.36-0.146 0.445-0.264 0.0666-0.0935 0.121-0.188 0.121-0.211 0-0.0224 0.0494-0.111 0.11-0.197 0.0605-0.0857 0.189-0.301 0.286-0.479 0.204-0.375 0.499-0.896 0.997-1.76 0.641-1.12 1.99-3.49 2.19-3.85 0.107-0.194 0.239-0.418 0.295-0.499 0.0555-0.0808 0.111-0.174 0.124-0.207 0.0127-0.0331 0.261-0.48 0.552-0.992 0.367-0.647 0.534-0.894 0.547-0.807 0.0164 0.11-0.374 0.844-1.22 2.3-0.214 0.367-1.29 2.24-1.56 2.73-0.602 1.07-2.22 3.89-2.27 3.95-0.0775 0.0948 0.0127 0.0941 0.387-3e-3l0.286-0.0742 0.774-1.35c0.426-0.742 1.05-1.82 1.38-2.41 0.334-0.581 0.666-1.16 0.738-1.29 0.0715-0.129 0.296-0.526 0.499-0.881s0.504-0.884 0.669-1.17c0.227-0.399 0.304-0.497 0.318-0.399 0.0112 0.0793-0.143 0.403-0.396 0.833-0.228 0.387-0.415 0.72-0.415 0.739 0 0.0195-0.0494 0.107-0.11 0.195-0.0603 0.0875-0.288 0.476-0.507 0.864-0.218 0.388-0.464 0.824-0.546 0.969-0.134 0.238-1.4 2.45-1.95 3.41-0.121 0.21-0.216 0.386-0.211 0.391 5e-3 6e-3 0.21-0.0443 0.455-0.11 0.42-0.112 0.454-0.134 0.574-0.362 0.176-0.337 0.379-0.694 0.591-1.04 0.0991-0.161 0.18-0.301 0.18-0.312 0-0.0103 0.242-0.439 0.537-0.954 0.296-0.514 0.716-1.25 0.934-1.64 0.78-1.39 0.876-1.54 0.877-1.38 5.2e-4 0.0808-0.121 0.358-0.27 0.617-0.149 0.258-0.435 0.761-0.637 1.12s-0.571 1-0.822 1.44c-0.607 1.06-0.716 1.25-0.985 1.73-0.126 0.226-0.253 0.436-0.284 0.467-0.108 0.108-0.0532 0.141 0.135 0.0809 0.105-0.0334 0.322-0.0928 0.483-0.132 0.259-0.0634 0.311-0.104 0.462-0.361 0.0938-0.159 0.557-0.963 1.03-1.78 0.593-1.03 0.865-1.46 0.877-1.37 0.0111 0.076-0.144 0.406-0.386 0.82-0.222 0.381-0.585 1.01-0.807 1.4-0.221 0.388-0.453 0.778-0.514 0.867-0.0617 0.0893-0.103 0.186-0.0928 0.215 0.0107 0.0287 0.204-6e-3 0.43-0.0763l0.411-0.129 0.47-0.786c0.332-0.555 0.475-0.75 0.488-0.663 0.01 0.0674-0.051 0.232-0.135 0.366-0.0844 0.134-0.201 0.327-0.26 0.43-0.0584 0.103-0.165 0.286-0.237 0.407l-0.131 0.22 0.226-0.0784c0.124-0.0431 0.3-0.0966 0.391-0.119 0.153-0.0373 0.164-0.0285 0.147 0.115-0.0218 0.18-0.0164 0.178-2.31 0.817-0.775 0.216-1.57 0.442-1.76 0.502-0.445 0.138-3.59 1.04-4.02 1.15-0.178 0.0462-0.482 0.134-0.675 0.196-0.194 0.0615-0.941 0.277-1.66 0.478-0.72 0.201-1.29 0.386-1.26 0.411 0.0254 0.0247 2.67 1.36 5.88 2.96 5.75 2.88 5.83 2.92 5.83 3.09 0 0.173-2e-3 0.172-6.07-2.87l-6.07-3.04-2.94 5.88c-1.62 3.24-2.94 5.91-2.94 5.95 0 0.0465 1.66 0.0638 5.93 0.0622 4.92-2e-3 5.98-0.0166 6.21-0.0851 0.155-0.0455 0.532-0.148 0.839-0.228 1.02-0.265 1.96-0.512 3.08-0.812 0.614-0.164 1.31-0.343 1.54-0.4l0.426-0.102v0.169c0 0.0958-0.0317 0.169-0.0734 0.169-0.066 0-0.725 0.169-3.13 0.801-0.42 0.111-1.03 0.27-1.35 0.354-1.28 0.334-1.39 0.372-1.36 0.478 0.0162 0.0547 0.0592 0.324 0.0956 0.599s0.13 0.843 0.208 1.26c0.178 0.961 0.178 0.969-2e-3 0.969-0.117 0-0.15-0.0361-0.176-0.191-0.0176-0.105-0.119-0.704-0.225-1.33l-0.193-1.14-0.203 0.255c-0.112 0.14-0.243 0.314-0.291 0.387-0.126 0.189-0.987 1.33-1.25 1.66-0.121 0.151-0.22 0.294-0.22 0.319 0 0.0248-0.0925 0.0451-0.206 0.0451-0.195 0-0.206-0.0107-0.206-0.199 0-0.19-0.266-2.28-0.324-2.54-0.0206-0.0938-0.0817-0.132-0.241-0.151l-0.214-0.0249 0.039 0.386c0.0215 0.212 0.0987 0.868 0.172 1.46 0.102 0.827 0.116 1.07 0.0592 1.07-0.0404 0-0.0873-0.0859-0.104-0.191-0.0362-0.226-0.188-1.56-0.239-2.1-0.0575-0.606-0.067-0.626-0.297-0.621-0.111 2e-3 -0.201 0.0307-0.201 0.0631 5.2e-4 0.0323 0.0278 0.244 0.0606 0.47 0.0328 0.226 0.0988 0.768 0.147 1.2 0.0479 0.436 0.103 0.882 0.123 0.991 0.028 0.154 0.0178 0.192-0.0451 0.172-0.0593-0.0196-0.129-0.407-0.258-1.43l-0.177-1.41-0.248-0.018c-0.242-0.0176-0.247-0.0143-0.22 0.147 0.173 1.03 0.39 2.67 0.358 2.7-0.101 0.101-0.109 0.0591-0.423-2.14l-0.102-0.72h-0.229c-0.219 0-0.228 7e-3 -0.195 0.162 0.0355 0.169 0.386 2.6 0.386 2.67 0 0.0243-0.0341 0.0441-0.0759 0.0441-0.0513 0-0.0966-0.166-0.14-0.514-0.0352-0.283-0.126-0.93-0.202-1.44l-0.138-0.925h-0.483l0.0747 0.485c0.0412 0.266 0.131 0.855 0.199 1.31 0.0681 0.452 0.137 0.882 0.152 0.954 0.0195 0.0914 5.3e-4 0.132-0.061 0.132-0.049 0-0.0898-0.0198-0.0904-0.0441-2e-3 -0.0601-0.204-1.43-0.325-2.2l-0.0992-0.631h-0.262c-0.254 0-0.261 5e-3 -0.229 0.162 0.0458 0.224 0.37 2.16 0.413 2.47 0.022 0.157 0.0122 0.25-0.0263 0.25-0.0337 0-0.0708-0.033-0.0824-0.0734-0.0295-0.103-0.25-1.42-0.363-2.17l-0.0946-0.626-0.2-0.0233c-0.11-0.0128-0.225-8e-3 -0.256 0.0115-0.0341 0.0211 0.0351 0.577 0.176 1.41 0.27 1.6 0.255 1.47 0.154 1.47-0.0535 0-0.093-0.11-0.119-0.333-0.0569-0.484-0.385-2.32-0.438-2.45-0.0324-0.08-0.108-0.113-0.268-0.117l-0.223-6e-3 0.0374 0.294c0.0206 0.162 0.132 0.804 0.247 1.43 0.115 0.624 0.193 1.15 0.173 1.17-0.0803 0.0803-0.139-0.106-0.266-0.837-0.204-1.18-0.357-1.99-0.381-2.01-0.0119-0.012-0.127-0.0133-0.256-3e-3l-0.235 0.0184 0.202 0.969c0.111 0.533 0.225 1.1 0.253 1.26 0.0279 0.162 0.0699 0.37 0.0935 0.463 0.0331 0.131 0.0243 0.163-0.0389 0.142-0.0761-0.0253-0.183-0.476-0.556-2.35l-0.102-0.514h-0.288c-0.248 0-0.284 0.0146-0.257 0.103 0.0173 0.0565 0.0983 0.4 0.18 0.764 0.0818 0.363 0.215 0.952 0.296 1.31 0.173 0.761 0.167 0.704 0.0668 0.704-0.0538 0-0.113-0.169-0.181-0.514-0.0556-0.283-0.176-0.831-0.267-1.22-0.0911-0.388-0.183-0.804-0.203-0.925-0.0207-0.121-0.0694-0.223-0.108-0.226-0.0918-8e-3 -0.479 0.0138-0.493 0.0274-6e-3 6e-3 0.038 0.208 0.0979 0.45 0.298 1.2 0.531 2.21 0.53 2.3 0 0.0565-0.025 0.103-0.0551 0.103-0.0644 0-0.0751-0.0337-0.241-0.764-0.0697-0.307-0.188-0.809-0.263-1.12-0.0748-0.307-0.153-0.657-0.173-0.778-0.0368-0.217-0.0415-0.22-0.305-0.22-0.21 0-0.261 0.0185-0.235 0.0851 0.018 0.0468 0.0726 0.278 0.121 0.514 0.0488 0.236 0.167 0.733 0.262 1.1 0.213 0.83 0.271 1.17 0.198 1.17-0.0495 0-0.244-0.706-0.51-1.85-0.0526-0.226-0.135-0.55-0.183-0.72l-0.0875-0.308h-0.328c-0.238 0-0.32 0.0202-0.3 0.0734 0.015 0.0404 0.0609 0.219 0.102 0.396 0.0411 0.178 0.161 0.653 0.266 1.06 0.105 0.404 0.209 0.835 0.231 0.959 0.0219 0.123 0.0557 0.266 0.0751 0.316 0.0237 0.0618 8e-3 0.0831-0.0475 0.0648-0.0537-0.0176-0.207-0.522-0.436-1.43l-0.353-1.41-0.653-0.0347 0.342 1.37c0.188 0.752 0.342 1.4 0.342 1.44 0 0.0412-0.063 0.0748-0.14 0.0748-0.134 0-0.154-0.0588-0.472-1.37-0.183-0.751-0.343-1.4-0.355-1.43-0.0236-0.0701-0.203-0.0294-1.29 0.293-0.814 0.241-3.22 0.931-3.35 0.962-0.0646 0.0154-0.369 0.102-0.675 0.194-0.307 0.0912-1.19 0.342-1.97 0.558-0.775 0.216-1.71 0.483-2.07 0.594-0.573 0.176-0.724 0.2-1.17 0.185l-0.512-0.017 0.67-0.193c0.369-0.106 0.935-0.271 1.26-0.366 0.323-0.0953 0.786-0.227 1.03-0.292 0.798-0.216 1.02-0.278 2.14-0.607 0.614-0.179 1.26-0.365 1.44-0.412 0.178-0.0474 1.12-0.316 2.09-0.597 0.969-0.281 1.82-0.528 1.89-0.548 0.11-0.0316 0.0606-0.0688-0.294-0.223-1.41-0.611-1.88-0.814-2.77-1.2-0.549-0.234-1.2-0.51-1.44-0.612-0.443-0.188-0.599-0.255-2.7-1.17-0.63-0.273-1.66-0.714-2.29-0.98-0.63-0.266-1.63-0.692-2.21-0.947-0.588-0.255-1.08-0.464-1.1-0.464-0.0165 0-0.196-0.0771-0.4-0.171-0.203-0.0942-0.819-0.361-1.37-0.593-0.549-0.232-1.38-0.588-1.85-0.792-0.686-0.298-3.91-1.68-4.14-1.77-0.039-0.0158-0.0536 1.99-0.0435 5.97l0.0152 5.99h-0.295v-5.87c0-3.23-0.015-5.91-0.0334-5.96-0.0248-0.0646-0.831 0.445-3.13 1.98-1.7 1.14-3.14 2.09-3.2 2.12-0.341 0.193-2.39 1.59-2.38 1.62 0.0075 0.0211 1.36 1.4 3.01 3.05 2.97 2.99 2.99 3.02 2.79 3.04-0.196 0.0189-0.287-0.0663-3.1-2.91l-2.89-2.93v5.84h-0.294v-2.98c0-2.6-0.0116-3-0.0914-3.11-0.0503-0.0718-0.112-0.131-0.136-0.131-0.0246 0-1.97-1.28-4.31-2.84l-4.27-2.84v11.9h-0.353l1e-3 -5.92c6.23e-4 -3.25 7.96e-4 -5.94 5.19e-4 -5.98-2.94e-4 -0.0328-2.65 1.26-5.88 2.88l-5.88 2.94 0.148 0.118c0.0814 0.065 0.296 0.224 0.478 0.353 0.181 0.129 0.361 0.262 0.4 0.295 0.0806 0.0695 0.705 0.538 0.921 0.691 0.191 0.135 0.196 0.139 2.8 2.1 1.22 0.921 2.28 1.71 2.35 1.76 0.339 0.238 0.963 0.717 0.963 0.739 0 0.0135-0.0993 0.0247-0.221 0.0247-0.216 0-0.605-0.265-2.54-1.73-0.526-0.398-1.44-1.08-1.77-1.33-0.401-0.296-2.36-1.78-2.47-1.87-0.284-0.233-0.947-0.701-0.966-0.681-0.0129 0.0129 4e-3 0.0723 0.0374 0.132 0.111 0.198 0.414 0.89 0.542 1.24 0.0692 0.188 0.148 0.37 0.176 0.405 0.0274 0.035 0.199 0.418 0.382 0.852 0.446 1.06 0.603 1.43 0.956 2.25 0.165 0.382 0.3 0.708 0.3 0.723 0 0.0154-0.0693 0.0197-0.154 9e-3 -0.134-0.0161-0.188-0.0962-0.413-0.606-0.329-0.748-0.514-1.18-0.689-1.6-0.0769-0.186-0.186-0.443-0.243-0.573-0.0568-0.129-0.203-0.473-0.325-0.764-0.354-0.845-0.641-1.52-0.702-1.64-0.031-0.0646-0.0843-0.194-0.118-0.289-0.0814-0.224-0.129-0.162-0.312 0.406-0.398 1.24-0.692 2.13-0.736 2.23-0.0271 0.0646-0.249 0.725-0.492 1.47-0.419 1.28-0.451 1.35-0.596 1.37-0.0841 0.0103-0.153-3e-3 -0.152-0.0294zm64.3-0.525c0.21-0.305 0.209-0.239 6e-3 -1.61l-0.1-0.675-0.219-0.0543c-0.12-0.0299-0.236-0.0379-0.256-0.0178-0.0201 0.0201 7e-3 0.362 0.0605 0.759 0.0533 0.397 0.125 0.947 0.159 1.22 0.067 0.537 0.0898 0.646 0.134 0.646 0.0157 0 0.112-0.122 0.215-0.271zm0.788-1.29c-0.0202-0.0969-0.0606-0.318-0.0898-0.49-0.0832-0.492-0.105-0.53-0.325-0.571-0.217-0.0407-0.405 2e-3 -0.357 0.0812 0.0164 0.0266 0.0845 0.377 0.151 0.779 0.187 1.13 0.146 1.06 0.42 0.693 0.195-0.26 0.23-0.346 0.199-0.491zm0.448-0.366c0.229-0.3 0.462-0.642 0.462-0.678 0-7e-3 -0.214-5e-3 -0.476 6e-3l-0.476 0.0194 0.0396 0.216c0.0752 0.409 0.158 0.774 0.175 0.774 0.01 0 0.133-0.151 0.274-0.336zm-11.8-1.23c-0.0107-0.0242-1.34-2.67-2.94-5.88l-2.92-5.84-1.28-0.845c-0.701-0.465-1.34-0.89-1.41-0.944-0.0735-0.055-1.47-0.985-3.09-2.07-2.51-1.67-2.95-1.98-2.89-2.06 0.0605-0.0779 0.0563-0.0789-0.0335-9e-3 -0.0849 0.0666-0.119 0.0672-0.195 3e-3 -0.0548-0.0454-0.109-0.0544-0.132-0.0219-0.0219 0.0302-0.17 0.251-0.328 0.491-0.159 0.24-0.383 0.542-0.499 0.672-0.116 0.13-0.174 0.214-0.129 0.187 0.0447-0.0267-0.0342 0.12-0.175 0.327-0.141 0.206-0.297 0.443-0.346 0.525-0.26 0.437-2.19 3.29-2.23 3.29-0.0235 0-0.0439 0.033-0.0451 0.0734-1e-3 0.0404-0.48 0.786-1.06 1.66-0.931 1.39-1.05 1.59-0.962 1.65 0.0542 0.0354 0.958 0.429 2.01 0.875 1.05 0.446 2.38 1.02 2.97 1.27 0.581 0.25 1.32 0.568 1.64 0.707 0.323 0.138 0.799 0.343 1.06 0.454 0.258 0.111 0.615 0.263 0.793 0.337 0.178 0.0738 0.64 0.272 1.03 0.441 0.388 0.169 1.23 0.532 1.88 0.808 0.646 0.276 1.37 0.586 1.62 0.69 0.731 0.313 2.94 1.26 3.29 1.41 0.178 0.0756 0.429 0.184 0.558 0.241 0.266 0.118 0.74 0.321 1.97 0.842 0.468 0.199 1.02 0.439 1.23 0.534 0.516 0.233 0.675 0.281 0.636 0.193zm3.32-5.85c1.61-3.21 2.92-5.87 2.92-5.92 0-0.0448-0.58-0.661-1.29-1.37-0.709-0.708-1.27-1.32-1.25-1.35 0.0195-0.0344 0.0127-0.0416-0.0155-0.0161-0.0279 0.0255-1.46-1.36-3.18-3.08-2.57-2.57-3.14-3.11-3.16-3.01-0.0181 0.0646-0.171 0.527-0.34 1.03-0.213 0.629-0.332 0.905-0.387 0.892-0.06-0.0136-0.0637 2e-3 -0.0148 0.0601 0.0492 0.0592-0.207 0.893-1.05 3.44l-1.12 3.36 2.96 5.91c1.63 3.25 2.97 5.91 2.99 5.91 0.0198 0 1.35-2.63 2.96-5.84zm-33.6 2.77c-0.0215-0.105-0.0783-0.561-0.126-1.01-0.0479-0.452-0.164-1.46-0.257-2.23-0.0936-0.775-0.238-2-0.321-2.73-0.157-1.38-0.236-2.05-1.09-9.4-0.0939-0.804-0.143-1.05-0.227-1.13-0.103-0.103-0.113-0.0975-0.292 0.181-0.102 0.159-0.185 0.35-0.185 0.425 0 0.0754 0.0915 0.892 0.203 1.82 0.112 0.923 0.298 2.47 0.413 3.44 0.347 2.91 0.611 5.13 0.823 6.9 0.11 0.921 0.247 2.08 0.303 2.58 0.0935 0.824 0.114 0.911 0.241 0.999 0.0764 0.053 0.21 0.155 0.296 0.227 0.216 0.179 0.267 0.166 0.221-0.0568zm0.582-0.0696c0.232-0.138 0.235-0.144 0.233-0.483-0.0012-0.189-0.0338-0.608-0.0725-0.931s-0.164-1.5-0.279-2.61c-0.325-3.17-0.603-5.85-0.823-7.96-0.111-1.07-0.231-2.22-0.266-2.56l-0.0632-0.617-0.338-0.323c-0.186-0.178-0.424-0.402-0.529-0.499l-0.191-0.176 0.0331 0.294c0.0182 0.162 0.125 1.07 0.236 2.03 0.38 3.24 0.614 5.25 0.767 6.61 0.0841 0.743 0.244 2.13 0.356 3.08 0.479 4.09 0.478 4.07 0.488 4.28 0.0056 0.112 0.0237 0.124 0.109 0.0717 0.0565-0.0344 0.209-0.125 0.338-0.202zm-1.42-0.488c-0.0101-0.0888-0.11-0.928-0.221-1.86-0.112-0.937-0.298-2.51-0.415-3.49-0.342-2.89-0.61-5.14-0.822-6.9-0.109-0.905-0.23-1.93-0.269-2.28-0.0394-0.347-0.0876-0.631-0.107-0.631-0.0195 3e-5 -0.111 0.135-0.204 0.3l-0.169 0.3 0.0684 0.742c0.0376 0.408 0.159 1.64 0.269 2.74 0.408 4.06 0.618 6.16 0.824 8.25 0.116 1.18 0.223 2.22 0.238 2.32 0.0205 0.138 0.106 0.23 0.392 0.424 0.201 0.136 0.382 0.248 0.4 0.25 0.0186 2e-3 0.0256-0.0704 0.0154-0.159zm2.17-0.0164c0.451-0.299 0.436-0.174 0.231-1.92-0.101-0.863-0.252-2.18-0.334-2.92-0.0822-0.743-0.187-1.68-0.234-2.09-0.0463-0.404-0.139-1.22-0.207-1.82-0.0676-0.598-0.2-1.75-0.295-2.56-0.0948-0.808-0.19-1.68-0.211-1.94l-0.0382-0.47-0.344-0.347c-0.189-0.191-0.36-0.332-0.378-0.313-0.0188 0.0187 0.0471 0.796 0.146 1.73 0.0992 0.931 0.274 2.61 0.389 3.72 0.115 1.11 0.299 2.9 0.41 3.96 0.307 2.95 0.432 4.18 0.476 4.68 0.0217 0.25 0.0576 0.455 0.08 0.455 0.0223 0 0.161-0.0801 0.309-0.178zm0.846-0.572c0.133-0.0883 0.289-0.188 0.345-0.221 0.0923-0.0545 0.0962-0.102 0.0382-0.47-0.0706-0.449-0.242-1.82-0.567-4.52-0.198-1.65-0.459-3.8-0.737-6.08l-0.118-0.969-0.349-0.35c-0.192-0.192-0.359-0.338-0.372-0.323-0.0131 0.0146 0.0366 0.542 0.11 1.17 0.0738 0.63 0.23 1.99 0.347 3.02 0.117 1.03 0.264 2.33 0.327 2.88 0.063 0.549 0.14 1.25 0.17 1.56 0.0307 0.307 0.136 1.26 0.234 2.11 0.0981 0.856 0.195 1.73 0.214 1.95 0.0197 0.218 0.0536 0.396 0.0752 0.395 0.0217-5.2e-4 0.149-0.0733 0.282-0.162zm-3.99-0.221c-0.0424-0.36-0.162-1.54-0.478-4.7-0.116-1.16-0.3-3-0.409-4.08-0.109-1.08-0.259-2.58-0.334-3.33-0.0748-0.751-0.15-1.36-0.166-1.36-0.0782 4e-3 -0.412 0.633-0.412 0.776 0 0.089 0.0909 1.16 0.202 2.38s0.271 3.01 0.356 3.98c0.282 3.23 0.564 6.22 0.589 6.25 0.0749 0.0749 0.594 0.414 0.638 0.417 0.0288 2e-3 0.035-0.142 0.014-0.322zm5.1-0.515 0.17-0.138-0.0685-0.583c-0.0954-0.812-0.404-3.19-0.919-7.07-0.2-1.5-0.317-2.47-0.32-2.62-0.0018-0.113-0.304-0.471-0.668-0.792l-0.167-0.147 0.0337 0.264c0.0609 0.478 0.438 3.58 0.654 5.37 0.116 0.969 0.301 2.49 0.411 3.38 0.11 0.888 0.215 1.8 0.234 2.03 0.019 0.226 0.0467 0.47 0.0615 0.541l0.0269 0.13 0.19-0.114c0.105-0.0626 0.267-0.176 0.36-0.252zm-5.96 0.187c0-0.0361-0.0522-0.637-0.116-1.34-0.0637-0.699-0.184-2.05-0.266-3-0.0827-0.953-0.24-2.74-0.35-3.96-0.11-1.23-0.232-2.61-0.27-3.07-0.0388-0.46-0.0866-0.836-0.106-0.834-0.0198 2e-3 -0.173 0.227-0.341 0.501l-0.305 0.498 0.167 1.6c0.0921 0.88 0.185 1.81 0.207 2.07 0.0216 0.258 0.127 1.36 0.235 2.44 0.108 1.08 0.256 2.59 0.329 3.35l0.133 1.39 0.297 0.213c0.319 0.228 0.386 0.254 0.386 0.152zm6.93-0.96c-7.35e-4 -0.192-0.124-1.16-0.731-5.73-0.109-0.824-0.244-1.86-0.3-2.3l-0.101-0.806-0.41-0.386c-0.225-0.212-0.417-0.378-0.425-0.369-0.0083 0.01 0.0582 0.56 0.148 1.22 0.169 1.25 0.483 3.65 0.737 5.64 0.295 2.31 0.383 2.97 0.412 3.12l0.0297 0.154 0.32-0.211c0.214-0.141 0.32-0.25 0.32-0.33zm-7.84-0.105c-0.0219-0.299-0.131-1.47-0.243-2.6-0.112-1.13-0.242-2.45-0.289-2.94-0.0474-0.485-0.139-1.41-0.203-2.06-0.0645-0.646-0.138-1.41-0.163-1.7-0.0252-0.291-0.0721-0.526-0.104-0.522-0.0321 3e-3 -0.133 0.133-0.224 0.289l-0.166 0.282 0.0665 0.769c0.0366 0.423 0.156 1.73 0.265 2.91 0.109 1.18 0.273 2.96 0.363 3.96l0.165 1.82 0.264 0.166c0.145 0.0913 0.274 0.167 0.287 0.167 0.0122 5.3e-4 0.0044-0.243-0.0175-0.542zm-0.705-0.0588c-0.015-0.0727-0.0557-0.476-0.0904-0.896-0.0347-0.42-0.154-1.75-0.265-2.97-0.351-3.82-0.442-4.84-0.444-4.96-0.0014-0.109-0.0098-0.107-0.121 0.0256-0.0655 0.0787-0.209 0.297-0.32 0.485l-0.201 0.342 0.0864 0.689c0.133 1.06 0.61 5 0.709 5.86 0.0112 0.0969 0.0464 0.411 0.0781 0.697 0.0317 0.286 0.0668 0.53 0.0779 0.541 0.063 0.063 0.433 0.309 0.471 0.313 0.0248 2e-3 0.0329-0.0545 0.0179-0.127zm9.17-0.132 0.369-0.235-0.0414-0.264c-0.0228-0.145-0.0467-0.33-0.0532-0.411-0.0065-0.0808-0.0272-0.186-0.046-0.235-0.0189-0.0485-0.0759-0.379-0.127-0.734-0.0913-0.638-0.249-1.63-0.648-4.06-0.112-0.684-0.204-1.31-0.204-1.4 0-0.113-0.109-0.27-0.396-0.567-0.247-0.256-0.403-0.379-0.414-0.326-0.0095 0.0466 0.0515 0.584 0.136 1.2 0.0841 0.611 0.19 1.42 0.236 1.8 0.0455 0.378 0.149 1.17 0.229 1.76 0.122 0.892 0.297 2.24 0.419 3.22 0.0426 0.342 0.0928 0.536 0.134 0.517 0.0213-0.01 0.205-0.124 0.407-0.253zm-9.85-0.279c1.77e-4 -0.0801-0.0771-0.737-0.382-3.25-0.11-0.905-0.256-2.12-0.326-2.7-0.0693-0.581-0.145-1.14-0.168-1.23l-0.0418-0.174-0.365 0.642 0.139 1.17c0.311 2.62 0.388 3.3 0.406 3.59 0.0109 0.167 0.033 0.326 0.0491 0.352 0.0161 0.0265 0.0487 0.284 0.0725 0.572 0.0579 0.701 0.082 0.771 0.321 0.94 0.235 0.166 0.294 0.181 0.294 0.0774zm10.7-0.312c0.254-0.168 0.309-0.234 0.287-0.338-0.0864-0.396-0.143-0.825-0.115-0.87 0.0793-0.128 0.13-0.0229 0.167 0.345 0.0559 0.567 0.071 0.578 0.464 0.332 0.272-0.17 0.33-0.233 0.307-0.337-0.0151-0.0702-0.105-0.537-0.2-1.04-0.0951-0.501-0.271-1.42-0.391-2.03l-0.218-1.12-0.761-0.747 0.0339 0.235c0.0186 0.129 0.181 1.13 0.36 2.23 0.218 1.33 0.307 2.01 0.267 2.05-0.0787 0.0787-0.0959 0.0175-0.212-0.754-0.0533-0.355-0.158-1.02-0.233-1.47-0.0747-0.452-0.196-1.19-0.27-1.64l-0.135-0.818-0.408-0.402c-0.224-0.221-0.415-0.395-0.423-0.386-0.0082 9e-3 0.0458 0.386 0.12 0.838 0.0742 0.452 0.229 1.42 0.345 2.14 0.464 2.92 0.644 3.99 0.671 3.99 0.0158 0 0.17-0.094 0.343-0.209zm-11.5-0.393c-0.0236-0.17-0.0518-0.473-0.0626-0.675-0.0109-0.202-0.0314-0.387-0.0455-0.411-0.0142-0.0244-0.0565-0.322-0.094-0.661-0.21-1.9-0.426-3.69-0.464-3.84l-0.0429-0.173-0.19 0.296c-0.104 0.163-0.19 0.372-0.191 0.467-9.56e-4 0.15 0.373 4.07 0.447 4.69 0.0241 0.201 0.0677 0.262 0.305 0.422 0.152 0.103 0.3 0.189 0.328 0.191 0.0286 2e-3 0.0325-0.134 0.0087-0.305zm-0.852-0.94c-0.0395-0.366-0.0651-0.718-0.057-0.781 0.0081-0.0631-1e-3 -0.154-0.0204-0.203-0.0342-0.086-0.0762-0.482-0.225-2.13-0.04-0.443-0.0942-0.791-0.12-0.775-0.0261 0.0161-0.116 0.147-0.2 0.29l-0.153 0.261 0.068 0.867c0.177 2.26 0.237 2.86 0.285 2.88 0.0284 9e-3 0.14 0.0821 0.247 0.161 0.107 0.0793 0.207 0.132 0.222 0.118 0.0144-0.0144-0.0061-0.326-0.0456-0.692zm14.1 0.144c0.121-0.0796 0.22-0.156 0.22-0.169s-0.0386-0.188-0.0858-0.389c-0.0472-0.2-0.182-0.777-0.299-1.28l-0.213-0.917-0.914-0.909 0.108 0.579c0.21 1.12 0.53 2.81 0.59 3.12l0.0604 0.312 0.157-0.102c0.0861-0.0559 0.256-0.167 0.377-0.246zm-14.9-1.57c-0.0748-0.89-0.151-1.62-0.17-1.62-0.0185 0-0.124 0.151-0.234 0.335l-0.201 0.335 0.103 1.06c0.0565 0.583 0.116 1.11 0.133 1.16 0.0283 0.099 0.436 0.403 0.483 0.361 0.0121-0.0111-0.0393-0.748-0.114-1.64zm16.1 0.747 0.237-0.157-0.537-0.519c-0.295-0.286-0.521-0.544-0.502-0.575 0.0189-0.0305-0.0031-0.0412-0.0489-0.0236-0.047 0.0181-0.145-0.0397-0.225-0.133-0.0778-0.0906-0.185-0.199-0.238-0.241-0.089-0.0706-0.0907-0.052-0.0219 0.235 0.0411 0.171 0.163 0.686 0.27 1.14l0.195 0.832 0.317-0.203c0.174-0.112 0.424-0.273 0.554-0.359zm-16.7 0.293c-0.0112-0.0889-0.0519-0.512-0.0903-0.94-0.0384-0.428-0.0866-0.778-0.107-0.778-0.0483 0-0.796 1.23-0.765 1.26 0.0938 0.0837 0.909 0.623 0.942 0.623 0.0225 0 0.0318-0.0727 0.0205-0.162zm-0.654-1.6c0.13-0.21 0.319-0.514 0.421-0.675 0.238-0.377 0.711-1.14 1.32-2.14 0.267-0.436 0.545-0.885 0.617-0.999 0.213-0.333 0.939-1.5 2.02-3.26 0.558-0.905 1.06-1.72 1.12-1.8 0.0607-0.0875 0.11-0.174 0.11-0.192 0-0.0179 0.0965-0.178 0.214-0.356 0.118-0.178 0.201-0.336 0.185-0.352-0.0162-0.0162-0.318 0.0102-0.67 0.0586-0.352 0.0484-0.865 0.114-1.14 0.145-0.447 0.0509-1.99 0.243-7.37 0.918-0.905 0.113-2.27 0.286-3.02 0.383-0.759 0.0972-1.72 0.216-2.14 0.263-0.42 0.0474-0.828 0.101-0.906 0.118-0.127 0.0289 0.332 0.508 4.26 4.43l4.4 4.4 0.173-0.277c0.0953-0.152 0.279-0.449 0.409-0.659zm18.9-0.714c0.591-0.884 1.11-1.6 1.15-1.59 0.0394 9e-3 0.0555-0.01 0.0358-0.0419-0.0429-0.0694 0.0388-0.203 1.1-1.8 0.452-0.678 0.931-1.35 1.06-1.49 0.134-0.142 0.21-0.24 0.169-0.217-0.144 0.0808-0.0599-0.0657 0.601-1.05 0.368-0.549 0.651-1.02 0.629-1.04-0.0222-0.0218-1.34-0.692-2.94-1.49l-2.9-1.45-0.803 0.0601c-0.442 0.033-1.65 0.14-2.68 0.237-2.86 0.269-6.34 0.587-6.92 0.63-0.284 0.0213-0.528 0.0595-0.544 0.0848-0.0156 0.0253 0.718 0.782 1.63 1.68 1.88 1.86 3.86 3.8 4.44 4.37 2.32 2.26 3.73 3.67 3.72 3.72-0.0089 0.0287 0.0062 0.0383 0.0336 0.0214 0.0273-0.017 0.284 0.205 0.571 0.493 0.287 0.288 0.531 0.514 0.543 0.502 0.0118-0.0119 0.505-0.744 1.1-1.63zm3.26-4.95c0-0.0122 0.0462-0.0584 0.103-0.103 0.0932-0.0731 0.0952-0.071 0.0222 0.0221-0.0767 0.0978-0.125 0.129-0.125 0.0806zm11 3.05c-0.0866-0.0636-1.05-0.735-1.15-0.802-0.148-0.0994-1.9-1.32-2.37-1.66-0.397-0.281-1.46-1.03-1.82-1.28-1.44-1-2.8-1.96-2.82-1.99-0.0442-0.056-0.417-0.257-0.433-0.234-0.0076 0.0112-0.102 0.134-0.209 0.274-0.109 0.141-0.172 0.274-0.143 0.301 0.0717 0.0653 7.46 4.99 8.6 5.73l0.206 0.134 0.0795-0.231c0.0438-0.127 0.0701-0.238 0.0587-0.247zm11.8-0.835c-0.101-0.577-0.221-1.3-0.266-1.61-0.0457-0.308-0.148-0.93-0.226-1.38-0.0789-0.452-0.239-1.39-0.355-2.09-0.878-5.24-1.28-7.66-1.33-7.99-0.031-0.21-0.134-0.831-0.23-1.38-0.0954-0.549-0.203-1.19-0.239-1.42-0.0361-0.234-0.0894-0.411-0.118-0.393-0.029 0.0179-1 1.45-2.16 3.19-1.16 1.74-2.16 3.23-2.23 3.33-0.401 0.575-1.37 2.07-1.37 2.12 0 0.0294 1.41 1.47 3.14 3.19 1.73 1.73 3.12 3.16 3.1 3.2-0.0193 0.0312-9e-3 0.0408 0.022 0.0216 0.0313-0.0194 0.583 0.491 1.23 1.13 0.643 0.643 1.18 1.16 1.19 1.15 0.0107-0.0108-0.0628-0.492-0.164-1.07zm0.711 0.754c0.105-0.186 0.257-0.457 0.338-0.602 0.0811-0.145 0.192-0.344 0.246-0.441 0.0542-0.0969 0.512-0.896 1.02-1.78 0.506-0.88 0.92-1.61 0.92-1.63 0-0.0161 0.0925-0.174 0.206-0.351 0.113-0.177 0.206-0.337 0.206-0.356 0-0.0193 0.0925-0.18 0.206-0.356 0.113-0.177 0.206-0.332 0.206-0.345s0.0895-0.178 0.199-0.366c0.295-0.507 1.1-1.92 1.67-2.93 0.273-0.485 0.542-0.947 0.598-1.03 0.0558-0.0808 0.202-0.332 0.324-0.558 0.123-0.226 0.259-0.453 0.303-0.504 0.0439-0.051 0.0798-0.112 0.0798-0.135 0-0.0232 0.23-0.444 0.51-0.935 0.281-0.491 0.546-0.959 0.591-1.04 0.0442-0.0807 0.136-0.239 0.203-0.352 0.0674-0.113 0.18-0.311 0.251-0.441 0.0704-0.129 0.6-1.05 1.18-2.06 0.95-1.65 1.51-2.63 1.88-3.29 0.0721-0.129 0.228-0.404 0.347-0.61 0.119-0.206 0.209-0.382 0.2-0.391-9e-3 -9e-3 -2.01-0.68-4.45-1.49l-4.43-1.48-2.99 2.98c-2.95 2.95-2.99 2.99-2.96 3.19 0.0153 0.113 0.0835 0.536 0.152 0.94 0.432 2.56 0.651 3.87 1.65 9.89 0.612 3.68 1.11 6.71 1.11 6.74 0 0.103 0.054 0.0373 0.238-0.289zm-12.3-0.355c0.0514-0.185 0.0451-0.229-0.0419-0.292-0.0564-0.0404-0.34-0.246-0.631-0.457-0.653-0.473-1.44-1.04-1.88-1.35-0.183-0.129-0.422-0.301-0.53-0.382-0.108-0.0808-0.336-0.248-0.507-0.371-0.171-0.123-0.522-0.377-0.781-0.564-0.258-0.187-1.23-0.89-2.17-1.56l-1.7-1.22-0.195 0.231c-0.107 0.127-0.196 0.248-0.196 0.269-5.19e-4 0.0294 3.94 2.81 6.53 4.61 0.311 0.216 0.712 0.496 1.17 0.822 0.644 0.452 0.778 0.536 0.819 0.51 0.0235-0.0144 0.07-0.125 0.103-0.245zm0.314-0.923c0.0279-0.0943-0.04-0.169-0.347-0.382-0.21-0.145-0.466-0.325-0.569-0.4-0.162-0.117-2.19-1.55-4.97-3.51-0.436-0.307-1.11-0.782-1.5-1.06-0.387-0.273-0.718-0.496-0.734-0.496-0.0164 0-0.107 0.097-0.202 0.216-0.167 0.209-0.169 0.218-0.0587 0.298 0.0623 0.0451 0.629 0.452 1.26 0.903 0.63 0.452 1.24 0.893 1.37 0.98 0.122 0.0873 0.386 0.28 0.587 0.429 0.201 0.149 0.475 0.347 0.609 0.441 0.133 0.0933 0.552 0.394 0.931 0.669 0.379 0.275 0.763 0.552 0.854 0.617 1.07 0.76 1.8 1.28 2.14 1.54l0.411 0.308 0.0943-0.218c0.0518-0.12 0.11-0.271 0.129-0.336zm0.175-0.568 0.0917-0.275-0.421-0.296c-0.232-0.163-0.712-0.509-1.07-0.769-0.355-0.26-0.712-0.518-0.793-0.572-0.0808-0.0546-0.345-0.246-0.587-0.424-0.242-0.179-0.498-0.365-0.568-0.413-0.07-0.0485-0.427-0.305-0.793-0.57-0.366-0.265-1.05-0.758-1.52-1.1-0.855-0.616-1.14-0.825-1.79-1.3l-0.348-0.256-0.195 0.245c-0.107 0.135-0.187 0.27-0.177 0.3 0.017 0.0526 0.371 0.318 0.891 0.668 0.129 0.0869 0.697 0.488 1.26 0.891 1.52 1.09 1.52 1.08 2.05 1.45 0.27 0.188 0.565 0.394 0.655 0.459 0.179 0.128 1.15 0.813 1.29 0.911 0.0485 0.0334 0.497 0.35 0.996 0.703 0.499 0.353 0.912 0.637 0.917 0.63 5e-3 -6e-3 0.05-0.136 0.1-0.287zm0.296-0.848 0.0888-0.301-1.03-0.756c-0.568-0.416-1.09-0.796-1.17-0.844-0.0726-0.0485-0.401-0.286-0.731-0.529-0.329-0.242-0.972-0.711-1.43-1.04-0.456-0.331-1.09-0.794-1.41-1.03-0.319-0.234-0.64-0.465-0.713-0.514-0.0732-0.0485-0.365-0.258-0.647-0.466l-0.514-0.377-0.106 0.142c-0.0584 0.0783-0.16 0.213-0.226 0.299l-0.12 0.156 0.171 0.137c0.0941 0.0756 0.414 0.309 0.711 0.519 0.297 0.21 0.682 0.488 0.855 0.617 0.173 0.129 0.402 0.296 0.508 0.37 0.106 0.074 0.457 0.328 0.78 0.564s1.08 0.781 1.67 1.21 1.18 0.85 1.29 0.935c0.113 0.0849 0.272 0.199 0.352 0.253 0.0808 0.0542 0.451 0.322 0.822 0.595 0.434 0.319 0.689 0.472 0.713 0.428 0.0209-0.0374 0.078-0.203 0.127-0.369zm-52-0.412c0.278-0.0877 0.322-0.126 0.481-0.426 0.0961-0.181 0.4-0.726 0.676-1.21 0.276-0.485 0.581-1.03 0.678-1.2 0.0972-0.178 0.334-0.601 0.526-0.94 0.344-0.607 1.03-1.83 1.32-2.35 0.081-0.145 0.277-0.489 0.434-0.764 0.158-0.275 0.34-0.6 0.405-0.722l0.117-0.222-0.121-0.209c-0.0667-0.115-0.145-0.209-0.173-0.209-0.0286 6e-5 -0.122 0.128-0.208 0.285-0.0857 0.157-0.252 0.45-0.37 0.652-0.118 0.202-0.311 0.532-0.429 0.734-0.213 0.364-0.325 0.56-1 1.75-0.193 0.339-0.488 0.852-0.654 1.14-0.167 0.287-0.303 0.531-0.303 0.542 0 0.0109-0.0925 0.164-0.206 0.341-0.113 0.177-0.206 0.336-0.206 0.355 0 0.0183-0.069 0.143-0.153 0.276-0.0844 0.134-0.213 0.351-0.285 0.483-0.0723 0.132-0.231 0.412-0.353 0.622-0.122 0.21-0.279 0.488-0.349 0.617-0.0703 0.129-0.176 0.308-0.234 0.396-0.102 0.154-0.102 0.162-0.0022 0.162 0.0574 0 0.242-0.0434 0.41-0.0964zm52.3-0.649c2e-3 -0.0386-0.221-0.237-0.496-0.441-0.275-0.204-0.751-0.555-1.06-0.781-0.305-0.226-0.809-0.596-1.12-0.822s-0.652-0.477-0.761-0.558c-0.239-0.177-1.14-0.841-2.14-1.58-0.404-0.297-0.832-0.618-0.951-0.714-0.119-0.0959-0.233-0.174-0.254-0.174-0.0209 0-0.156-0.0962-0.299-0.214-0.144-0.118-0.271-0.204-0.284-0.191-0.0126 0.0127-0.113 0.141-0.224 0.285l-0.201 0.262 0.152 0.123c0.0834 0.0679 0.535 0.399 1 0.736 0.468 0.337 1.08 0.777 1.35 0.978 0.275 0.201 0.579 0.421 0.675 0.489 0.0969 0.0678 0.433 0.313 0.747 0.545 0.314 0.232 1.01 0.739 1.55 1.13 0.536 0.388 1.11 0.804 1.28 0.926s0.402 0.286 0.52 0.365c0.118 0.079 0.236 0.176 0.26 0.216 0.0412 0.0666 0.242-0.39 0.254-0.579zm-51.4 0.376c0.333-0.0897 0.385-0.124 0.486-0.321 0.0455-0.0882 0.222-0.411 0.392-0.718 0.17-0.307 0.415-0.756 0.545-0.998 0.13-0.242 0.322-0.586 0.427-0.764 0.105-0.178 0.343-0.601 0.529-0.94 0.186-0.339 0.412-0.749 0.501-0.91 0.21-0.382 0.872-1.56 1.08-1.93l0.165-0.289-0.139-0.254c-0.0763-0.14-0.155-0.254-0.175-0.254-0.0197 0-0.066 0.0595-0.103 0.132-0.0369 0.0727-0.186 0.344-0.332 0.602-0.146 0.258-0.344 0.621-0.441 0.805-0.097 0.184-0.305 0.554-0.463 0.822-0.158 0.268-0.366 0.632-0.462 0.81-0.0965 0.178-0.354 0.64-0.573 1.03s-0.483 0.863-0.587 1.06-0.326 0.587-0.492 0.875c-0.166 0.287-0.302 0.53-0.302 0.54 0 0.01-0.0924 0.171-0.205 0.359-0.286 0.474-0.288 0.469 0.147 0.352zm1.05-0.302c0.156-0.0539 0.24-0.15 0.416-0.476 0.464-0.862 0.742-1.37 1.15-2.11 0.233-0.421 0.523-0.95 0.645-1.18s0.29-0.53 0.373-0.675c0.201-0.351 0.571-1.03 0.722-1.32l0.121-0.237-0.263-0.446-0.0996 0.166c-0.0936 0.156-1.15 2.07-1.35 2.46-0.0515 0.0969-0.561 1.01-1.13 2.04-0.571 1.02-1.04 1.88-1.04 1.9 0 0.0349 0.0856 0.0133 0.46-0.116zm1.01-0.287c0.104-0.0493 0.367-0.475 0.93-1.51 0.431-0.791 0.879-1.61 0.995-1.82 0.116-0.21 0.269-0.488 0.34-0.617 0.0708-0.129 0.23-0.417 0.353-0.64l0.224-0.405-0.136-0.256c-0.0746-0.141-0.154-0.256-0.176-0.256-0.0349 0-0.544 0.895-1.14 2-0.0954 0.178-0.233 0.429-0.305 0.558-0.0724 0.129-0.212 0.38-0.309 0.558-0.821 1.49-1.14 2.09-1.25 2.3l-0.125 0.245 0.225-0.0416c0.124-0.0228 0.291-0.0724 0.37-0.11zm49.5-0.23c0.0258-0.105 0.0477-0.207 0.0488-0.227 2e-3 -0.0337-0.775-0.622-3.96-3-0.662-0.494-1.23-0.919-1.26-0.944-0.791-0.609-1.19-0.908-1.52-1.14l-0.403-0.283-0.343 0.41 0.134 0.103c0.074 0.0565 0.161 0.123 0.193 0.149 0.0323 0.0253 0.614 0.452 1.29 0.948 1.59 1.16 1.56 1.14 2.51 1.84 0.97 0.719 1.45 1.07 1.78 1.3 0.136 0.0969 0.456 0.335 0.711 0.529 0.475 0.362 0.671 0.494 0.74 0.497 0.0217 2e-3 0.0605-0.0838 0.0863-0.189zm-48.6-0.0201c0.12-0.027 0.227-0.188 0.576-0.866 0.236-0.458 0.548-1.06 0.693-1.33 0.615-1.16 0.962-1.86 0.962-1.93 0-0.111-0.171-0.422-0.231-0.422-0.0287 0-0.297 0.456-0.596 1.01-0.299 0.557-0.601 1.11-0.671 1.22-0.0698 0.113-0.216 0.377-0.325 0.587-0.109 0.21-0.378 0.702-0.597 1.09-0.219 0.392-0.399 0.726-0.399 0.743 0 0.017 0.0991 7e-3 0.22-0.0225 0.121-0.0293 0.287-0.0682 0.368-0.0865zm0.9-0.282c0.18-0.0712 0.187-0.0827 1.21-2.06l0.577-1.12-0.129-0.226c-0.0708-0.124-0.151-0.226-0.178-0.225-0.0269 5.1e-4 -0.206 0.301-0.397 0.667-0.875 1.67-1.57 3.03-1.57 3.07 0 0.0432 0.249-0.0103 0.49-0.106zm0.949-0.255c0.162-0.0497 0.324-0.12 0.361-0.155 0.0368-0.0358 0.259-0.435 0.493-0.888 0.235-0.452 0.45-0.852 0.478-0.889 0.0618-0.0799-0.357-0.816-0.424-0.744-0.0241 0.0259-0.175 0.298-0.336 0.605-0.968 1.85-1.13 2.17-1.13 2.2 0 0.0214 0.0595 0.0212 0.132-5.1e-4 0.0727-0.0217 0.264-0.08 0.426-0.13zm46.9-0.482c-0.17-0.145-0.393-0.32-0.993-0.779-0.23-0.176-1.3-1.01-1.94-1.5-0.0707-0.055-0.489-0.378-0.931-0.717-0.441-0.339-1.16-0.894-1.59-1.23-0.432-0.339-0.899-0.702-1.04-0.806l-0.252-0.189-0.189 0.219c-0.104 0.12-0.19 0.247-0.191 0.281-2e-3 0.034 1.11 0.898 2.48 1.92 1.36 1.02 2.96 2.22 3.54 2.65l1.06 0.792 0.22-0.486zm-45.4 0.0739c0.408-0.119 0.75-0.222 0.76-0.228 0.0216-0.0141-0.499-0.885-0.639-1.07l-0.101-0.133-0.205 0.368c-0.267 0.481-0.629 1.19-0.629 1.24 0 0.0568 0.0196 0.0525 0.814-0.179zm45.8-0.5c0.0676-0.2 0.103-0.381 0.0788-0.403-0.0698-0.0609-1.49-1.13-1.63-1.23-0.0697-0.0485-0.457-0.339-0.86-0.646-0.403-0.307-1.1-0.835-1.55-1.17-0.449-0.338-0.83-0.63-0.846-0.65-0.0162-0.0194-0.294-0.231-0.617-0.47-0.323-0.239-0.614-0.456-0.646-0.482-0.51-0.408-0.523-0.415-0.607-0.288-0.0435 0.0655-0.13 0.178-0.192 0.25-0.113 0.13-0.112 0.131 0.0492 0.286 0.0893 0.0856 0.541 0.445 1 0.798 0.463 0.353 1.05 0.8 1.3 0.994 0.25 0.194 0.729 0.564 1.06 0.822 1.17 0.907 1.56 1.21 2 1.54 0.242 0.184 0.634 0.488 0.87 0.676 0.236 0.188 0.439 0.341 0.45 0.341 0.0111 0 0.0755-0.164 0.143-0.364zm-43.4 0.035c0.727-0.0954 0.754-0.095 0.881 0.0125l0.131 0.111-0.224-0.264h0.228c0.125 0 0.942-0.092 1.82-0.205 0.873-0.112 2.12-0.27 2.76-0.35 1.89-0.234 4.4-0.549 6.11-0.764 0.872-0.11 1.86-0.233 2.19-0.272 0.331-0.0397 0.602-0.0804 0.602-0.0904 0-0.0252-0.179-0.504-1.27-3.4-0.146-0.388-0.327-0.863-0.402-1.06-0.396-1.03-0.882-2.32-1.09-2.88-0.11-0.301-0.71-1.85-0.795-2.05-0.0372-0.0879-0.0294-0.102 0.0358-0.0634 0.0564 0.0332 0.0518 0.0125-0.014-0.0638-0.0536-0.0621-0.133-0.198-0.176-0.302-0.0766-0.184-0.677-0.938-2.25-2.83-0.421-0.505-0.935-1.13-1.14-1.39-0.207-0.258-0.471-0.577-0.586-0.708-0.115-0.131-0.487-0.577-0.826-0.992-0.339-0.415-1.01-1.23-1.5-1.82-0.485-0.586-0.985-1.2-1.11-1.36-0.276-0.348-0.689-0.814-0.742-0.837-0.0209-9e-3 -0.0545 0.103-0.0746 0.25-0.104 0.76-0.233 1.32-0.296 1.28-0.0472-0.0283-0.0469-0.0154 0.0013 0.0451 0.0517 0.065 0.0219 0.338-0.128 1.17-0.107 0.598-0.292 1.64-0.41 2.32-0.119 0.678-0.304 1.74-0.412 2.35-0.108 0.614-0.266 1.53-0.351 2.03-0.0852 0.501-0.245 1.43-0.355 2.06-0.11 0.63-0.295 1.69-0.411 2.35-0.269 1.54-0.555 3.18-0.821 4.7-0.116 0.662-0.275 1.57-0.354 2.01-0.0792 0.444-0.144 0.89-0.144 0.99 0 0.174 0.0091 0.182 0.191 0.149 0.105-0.0186 0.528-0.078 0.941-0.132zm32.8-4.11c0.779-4.73 1-6.02 1.04-6.14 0.0184-0.0485 0.0278-0.112 0.0211-0.141-0.0068-0.0291 0.256-1.65 0.583-3.6s0.582-3.56 0.565-3.58c-0.0223-0.0223-4.92 3.62-6.56 4.87-0.71 0.544-1.64 1.25-1.76 1.33-0.13 0.0873-1.95 1.45-2.73 2.05-0.162 0.123-0.368 0.272-0.458 0.33-0.0906 0.0582-0.178 0.142-0.195 0.186-0.0169 0.0439 0.631 1.4 1.44 3.02l1.47 2.94 2.92 1.46c2.76 1.38 2.93 1.45 2.97 1.33 0.023-0.0701 0.334-1.9 0.691-4.06zm-34.2 3.41c0.0537-0.288 0.189-1.07 0.3-1.73 0.111-0.665 0.295-1.73 0.408-2.37 0.113-0.638 0.299-1.7 0.414-2.35 0.234-1.34 0.48-2.71 0.519-2.9 0.0143-0.0697 0.0435-0.255 0.0648-0.411 0.0213-0.156 0.127-0.786 0.235-1.4 0.108-0.614 0.266-1.53 0.352-2.03 0.0854-0.501 0.205-1.19 0.266-1.53 0.147-0.817 0.82-4.71 0.82-4.75 5.9e-5 -0.01 0.0332 2e-3 0.0735 0.0259 0.0557 0.0334 0.0579 0.0237 0.0089-0.0406-0.0478-0.0627-0.0305-0.267 0.0666-0.79 0.0721-0.388 0.127-0.71 0.121-0.717-0.011-0.0131-0.655 0.332-3.59 1.92-1.03 0.559-2.1 1.14-2.38 1.28-0.275 0.145-0.579 0.309-0.675 0.366-0.0969 0.0565-0.427 0.235-0.734 0.397-0.307 0.162-0.677 0.36-0.822 0.44-0.145 0.0799-0.449 0.246-0.675 0.368-0.226 0.123-0.636 0.347-0.91 0.499-0.275 0.152-0.869 0.47-1.32 0.707-0.452 0.237-0.949 0.506-1.1 0.597-0.155 0.0912-0.307 0.166-0.338 0.166-0.0309 0-0.0562 0.0236-0.0562 0.0524s0.705 1.22 1.57 2.66c0.861 1.43 1.62 2.7 1.69 2.82 0.0677 0.116 0.687 1.15 1.38 2.29 0.689 1.14 1.28 2.13 1.32 2.2 0.0364 0.0646 0.15 0.25 0.252 0.411 0.205 0.325 2.09 3.49 2.14 3.58 0.0673 0.14 0.489 0.793 0.502 0.779 0.0081-9e-3 0.0586-0.251 0.112-0.539zm34.4-0.332c0.149-0.208 0.828-1.12 1.51-2.02 1.45-1.93 1.92-2.55 2.52-3.35 1.87-2.5 3.09-4.13 3.15-4.2 0.224-0.27 0.922-1.23 0.922-1.27 0-0.0703-5.66-5.72-5.73-5.72-0.0334 0-0.122 0.377-0.197 0.837-0.0752 0.46-0.198 1.19-0.273 1.63-0.0752 0.436-0.258 1.53-0.407 2.44-0.149 0.905-0.363 2.2-0.477 2.88-0.114 0.678-0.296 1.76-0.404 2.41-0.108 0.646-0.293 1.74-0.409 2.44-0.117 0.695-0.339 2.03-0.493 2.96l-0.28 1.7 0.15-0.172c0.0826-0.0949 0.272-0.343 0.421-0.551zm10.6 0.145c0.102-0.325 0.102-0.329-0.021-0.426-0.0685-0.0537-0.2-0.157-0.291-0.23-0.0918-0.0728-0.392-0.304-0.666-0.513s-0.592-0.456-0.705-0.547c-0.113-0.0913-0.602-0.467-1.09-0.834-0.485-0.368-1.08-0.822-1.32-1.01-0.242-0.187-0.718-0.553-1.06-0.814-0.339-0.26-0.657-0.505-0.706-0.543-0.0491-0.0388-0.184-0.141-0.299-0.228l-0.21-0.157-0.42 0.563 0.304 0.247c0.167 0.136 0.504 0.397 0.749 0.581 0.245 0.184 0.53 0.398 0.633 0.476 0.103 0.0783 0.263 0.197 0.355 0.264 0.212 0.155 1.54 1.16 1.62 1.22 0.0323 0.0267 0.521 0.397 1.09 0.824 0.566 0.426 1.23 0.927 1.47 1.11 0.242 0.185 0.445 0.337 0.452 0.338 6e-3 5.2e-4 0.0583-0.147 0.115-0.327zm0.238-0.685c0.155-0.451 0.17-0.414-0.326-0.815-0.255-0.206-0.932-0.745-1.5-1.2s-1.34-1.06-1.7-1.35c-0.361-0.289-0.682-0.546-0.714-0.57-0.0323-0.0242-0.164-0.131-0.294-0.238-0.984-0.814-1.5-1.19-1.55-1.13-0.264 0.307-0.428 0.57-0.376 0.602 0.0553 0.0348 0.408 0.304 1.92 1.46 0.263 0.202 0.584 0.448 0.713 0.547 0.129 0.0985 0.526 0.404 0.881 0.679 0.355 0.275 1.1 0.845 1.66 1.27s1.04 0.802 1.08 0.847c0.101 0.122 0.141 0.102 0.213-0.109zm-27.6-0.425c0.549-0.0483 2.02-0.18 3.26-0.293s3.01-0.272 3.94-0.354c0.921-0.0819 1.82-0.168 2.01-0.192l0.332-0.0427-1.44-2.88c-0.79-1.58-1.46-2.9-1.48-2.92-0.0371-0.0381-11.7-2.98-11.8-2.98-0.0237 0 0.0079 0.115 0.0702 0.256 0.0623 0.141 0.123 0.306 0.135 0.367 0.0117 0.0611 0.0517 0.185 0.0889 0.276 0.0372 0.0908 0.118 0.289 0.18 0.441 0.0619 0.151 0.183 0.474 0.27 0.716 0.0866 0.242 0.245 0.665 0.352 0.94 0.107 0.275 0.305 0.79 0.439 1.15 0.135 0.355 0.322 0.844 0.416 1.09 0.0943 0.242 0.344 0.903 0.556 1.47 0.212 0.565 0.461 1.23 0.554 1.47 0.093 0.242 0.27 0.712 0.394 1.04l0.225 0.604 0.264-0.0309c0.145-0.017 0.714-0.0704 1.26-0.119zm27.9-0.494 0.0916-0.251-0.21-0.186c-0.116-0.102-0.578-0.495-1.03-0.873-0.449-0.378-1.21-1.02-1.7-1.43-2.28-1.93-2.91-2.44-2.96-2.41-0.0545 0.0337-0.415 0.544-0.415 0.588 0 0.0226 0.473 0.415 1.03 0.854 0.184 0.145 0.45 0.357 0.591 0.47 0.141 0.113 0.396 0.316 0.566 0.451 0.171 0.135 0.803 0.637 1.41 1.12 0.602 0.479 1.2 0.95 1.32 1.05 0.123 0.0969 0.423 0.339 0.667 0.538 0.244 0.199 0.468 0.356 0.498 0.349 0.0299-7e-3 0.0958-0.126 0.146-0.264zm-0.231-1.18c-0.203-0.625-0.102-0.516-1.85-2-0.581-0.494-1.1-0.941-1.15-0.994-0.049-0.0528-0.247-0.227-0.441-0.388-0.193-0.16-0.623-0.525-0.955-0.81-0.332-0.285-0.623-0.506-0.647-0.491-0.0242 0.015-0.13 0.147-0.235 0.292-0.182 0.254-0.186 0.269-0.0803 0.343 0.0606 0.0425 0.253 0.2 0.427 0.351 0.174 0.151 0.594 0.503 0.933 0.784 0.339 0.281 0.907 0.756 1.26 1.06 2.43 2.05 2.88 2.43 2.89 2.41 8e-3 -8e-3 -0.0653-0.259-0.162-0.558zm3.46-3.83 2.94-4.41-1.06-1.59c-0.604-0.902-1.05-1.62-1.03-1.67 0.0186-0.0488 2e-3 -0.0718-0.0387-0.056-0.0412 0.0157-0.595-0.764-1.33-1.88-0.695-1.05-1.52-2.29-1.84-2.77l-0.58-0.864-2.94 8.83 1.46 4.4c0.804 2.42 1.47 4.4 1.47 4.4 6e-3 5.1e-4 1.33-1.98 2.95-4.41zm-3.77 2.9c-0.0132-0.0242-0.087-0.24-0.164-0.479l-0.14-0.435-1.02-0.916c-0.563-0.504-1.29-1.15-1.62-1.44-0.326-0.286-0.7-0.617-0.83-0.734-0.531-0.478-0.463-0.461-0.667-0.165l-0.18 0.262 0.278 0.226c0.153 0.124 0.424 0.358 0.603 0.52 0.444 0.401 1 0.881 1.21 1.04 0.0939 0.0721 0.184 0.147 0.2 0.167 0.0161 0.0199 0.518 0.454 1.12 0.965 0.598 0.511 1.1 0.952 1.11 0.979 0.0108 0.0275 0.0454 0.05 0.0769 0.05s0.0465-0.0198 0.0333-0.0441zm-0.612-1.85c-0.137-0.404-0.256-0.648-0.36-0.743-0.0859-0.0775-0.381-0.345-0.655-0.595-1.18-1.07-2.09-1.88-2.12-1.88-0.0462-5.3e-4 -0.346 0.449-0.346 0.519 0 0.065 3.6 3.3 3.67 3.3 0.01 0-0.0743-0.271-0.187-0.602zm-0.546-1.62c-0.122-0.38-0.248-0.759-0.282-0.842-0.056-0.141-1.37-1.43-1.58-1.54-0.0694-0.0391-0.133-2e-3 -0.255 0.147-0.238 0.291-0.345 0.49-0.299 0.557 0.0221 0.0322 0.542 0.506 1.16 1.05 0.614 0.546 1.19 1.07 1.29 1.16 0.095 0.0903 0.178 0.164 0.184 0.164 6e-3 0-0.0883-0.311-0.21-0.69zm-18.7-1.5c0.393-0.299 0.791-0.596 0.884-0.661 0.0936-0.0646 0.416-0.305 0.716-0.534 0.937-0.715 4.32-3.24 4.48-3.35 0.13-0.085 0.166-0.0877 0.254-0.019 0.0934 0.0732 0.0951 0.071 0.0198-0.0249-0.0485-0.0618-0.0606-0.125-0.0294-0.153 0.0612-0.0549 0.681-0.521 0.868-0.652 0.14-0.0988 1.64-1.22 2.52-1.89 0.314-0.238 0.769-0.578 1.01-0.755 0.242-0.178 0.441-0.336 0.442-0.352 5.17e-4 -0.0162-0.141-0.0712-0.314-0.122l-0.316-0.0929-0.756 0.551c-0.416 0.303-0.84 0.609-0.943 0.68-0.103 0.0712-0.509 0.367-0.904 0.658-0.394 0.291-1.09 0.799-1.55 1.13-0.456 0.33-1.23 0.891-1.71 1.25-0.755 0.556-1.44 1.06-2.6 1.9-0.138 0.101-0.393 0.289-0.567 0.418-0.174 0.129-0.518 0.38-0.765 0.558s-0.629 0.455-0.85 0.617c-0.221 0.162-0.605 0.439-0.853 0.617-0.539 0.385-0.706 0.522-0.674 0.55 0.0354 0.0305 0.712 0.201 0.826 0.208 0.0532 3e-3 0.418-0.239 0.811-0.537zm-1.71 0.147c0.0908-0.0565 0.389-0.269 0.662-0.473 0.632-0.471 1.28-0.95 1.72-1.26 0.187-0.135 0.574-0.418 0.86-0.628 0.286-0.21 0.776-0.567 1.09-0.793 0.313-0.226 0.657-0.477 0.766-0.558 0.108-0.0808 0.415-0.305 0.681-0.499 0.267-0.194 0.725-0.531 1.02-0.749 0.293-0.218 0.568-0.383 0.61-0.368 0.042 0.0157 0.0618 5e-3 0.0438-0.0244-0.018-0.0291 0.128-0.168 0.323-0.308 0.196-0.14 0.459-0.334 0.584-0.431 0.125-0.0969 0.328-0.248 0.452-0.335 0.123-0.0873 0.505-0.365 0.848-0.617 0.551-0.405 2.01-1.47 2.31-1.68 0.103-0.0739 0.093-0.0866-0.142-0.181-0.243-0.0972-0.259-0.0968-0.405 9e-3 -0.247 0.181-2.92 2-3.29 2.25-0.124 0.0808-0.42 0.277-0.658 0.437-0.238 0.159-0.476 0.291-0.53 0.292-0.0542 2e-3 -0.0875 0.0195-0.0741 0.0413 0.0134 0.0217-0.0188 0.0755-0.0717 0.12-0.104 0.0865-1.8 1.24-3.54 2.42-1.24 0.838-2.6 1.76-3.39 2.3-0.299 0.205-0.543 0.356-0.543 0.334 0-0.0215-0.0727 0.0286-0.162 0.111-0.0888 0.0826-0.234 0.196-0.323 0.253-0.0888 0.0564-0.162 0.122-0.162 0.145 0 0.0365 0.885 0.269 1.1 0.289 0.0396 3e-3 0.146-0.0396 0.237-0.0961zm19.7-1.05c-0.182-0.545-0.341-1-0.354-1.02-0.042-0.0428-0.235 0.164-0.466 0.499l-0.225 0.326 0.26 0.24c0.143 0.132 0.441 0.409 0.663 0.616 0.222 0.207 0.414 0.364 0.428 0.351 0.0137-0.0137-0.124-0.471-0.306-1.02zm-20.8 0.475c0.266-0.179 0.497-0.31 0.515-0.292 0.0179 0.0178 0.127-0.0579 0.242-0.168 0.115-0.11 0.593-0.459 1.06-0.774 0.468-0.315 1.25-0.843 1.73-1.17 0.485-0.329 1.17-0.796 1.53-1.04 0.355-0.241 0.871-0.594 1.15-0.783 0.275-0.189 1.03-0.7 1.67-1.13 0.646-0.435 1.54-1.04 2-1.35 0.452-0.31 0.866-0.591 0.921-0.623 0.0542-0.0323 0.345-0.229 0.646-0.438 0.301-0.208 0.64-0.441 0.752-0.517 0.112-0.0762 0.213-0.148 0.224-0.159 0.011-0.0111-0.112-0.0638-0.273-0.117l-0.293-0.0974-0.783 0.523c-1.55 1.04-5.37 3.57-5.42 3.59-0.0323 0.0162-0.546 0.356-1.14 0.756-0.595 0.399-1.11 0.731-1.15 0.736-0.0366 6e-3 -0.184 0.104-0.327 0.219-0.143 0.115-1.19 0.828-2.34 1.58l-2.08 1.37 0.372 0.0976c0.204 0.0537 0.402 0.1 0.44 0.103 0.0376 3e-3 0.286-0.141 0.551-0.319zm0.981-1.61c1.41-0.935 2.69-1.78 2.83-1.88 1.35-0.933 3.56-2.35 3.62-2.32 0.0431 0.0166 0.0721-2e-3 0.0644-0.0408-0.0076-0.039 0.938-0.704 2.1-1.48l2.11-1.41-0.323-0.0948c-0.24-0.0705-0.353-0.0787-0.441-0.032-0.123 0.0658-3.83 2.52-3.94 2.61-0.192 0.156-1.32 0.882-1.32 0.849 0-0.0214-0.0727 0.0281-0.162 0.11-0.0888 0.0819-0.452 0.342-0.808 0.579-0.355 0.236-0.712 0.476-0.793 0.531-0.0808 0.0558-1.47 0.979-3.08 2.05-1.62 1.07-2.96 1.97-2.99 2-0.0411 0.0391 0.137 0.115 0.536 0.229 0.0079 2e-3 1.17-0.761 2.58-1.7zm0.693-1.27c2.25-1.5 4.11-2.73 4.12-2.73 0.0164 0-0.0065 0.0463-0.0509 0.103-0.0733 0.0935-0.0712 0.0954 0.0236 0.021 0.0573-0.045 0.0915-0.0945 0.0759-0.11-0.0343-0.0343-0.128 0.0303 2.72-1.87 1.27-0.851 2.3-1.55 2.28-1.55-0.0194 0-0.163-0.0505-0.319-0.112l-0.284-0.112-0.849 0.583c-0.467 0.32-0.902 0.609-0.966 0.641-0.139 0.0697-0.206 0.113-1.15 0.751-0.423 0.287-0.742 0.467-0.773 0.436-0.0708-0.0709 1.63-1.21 1.72-1.15 0.0437 0.027 0.0539 0.0178 0.0275-0.0249-0.0254-0.0412 0.0151-0.0896 0.103-0.123 0.0796-0.0302 0.162-0.0836 0.184-0.119 0.0216-0.035 0.339-0.26 0.705-0.5 0.366-0.24 0.682-0.463 0.703-0.496 0.0206-0.0333-0.0305-0.0775-0.113-0.0983-0.128-0.0322-0.14-0.0522-0.0787-0.134 0.0607-0.0808 0.0591-0.0844-0.0102-0.0226-0.0453 0.0404-0.134 0.0734-0.196 0.0734-0.0626 0-0.328 0.141-0.59 0.314-0.262 0.173-0.992 0.653-1.62 1.07-1.58 1.04-3.39 2.23-5.23 3.44-0.856 0.565-1.83 1.21-2.17 1.43-0.6 0.389-2.84 1.86-3.56 2.34-0.198 0.132-0.352 0.256-0.34 0.274 0.0112 0.0186 0.165 0.0688 0.342 0.111l0.322 0.0771 2.63-1.76c1.45-0.968 3.36-2.25 4.25-2.84 0.888-0.596 1.64-1.1 1.67-1.11 0.0329-0.0162 0.307-0.197 0.609-0.402 0.348-0.236 0.57-0.352 0.605-0.317 0.0355 0.0353-0.0743 0.14-0.299 0.285-1.36 0.875-9.21 6.16-9.19 6.19 0.0257 0.0263 0.447 0.155 0.561 0.172 0.022 3e-3 1.88-1.22 4.13-2.73zm-5.54 2.03c0.178-0.125 0.348-0.237 0.377-0.25 0.0288-0.0123 0.792-0.513 1.7-1.11s1.94-1.28 2.29-1.51c0.355-0.23 0.765-0.501 0.91-0.602 0.145-0.101 0.74-0.495 1.32-0.877 0.581-0.381 1.64-1.08 2.35-1.54 0.711-0.468 1.81-1.19 2.44-1.6 0.63-0.414 1.28-0.844 1.45-0.955 0.17-0.112 0.296-0.224 0.28-0.249-0.0755-0.122-0.277-0.0929-0.542 0.0786-0.157 0.101-0.328 0.211-0.381 0.243-0.0529 0.0323-0.633 0.402-1.29 0.822-0.656 0.42-1.24 0.79-1.29 0.822-0.116 0.0664-0.96 0.603-1.66 1.06-0.481 0.311-1.09 0.7-1.82 1.16-0.226 0.143-1.11 0.709-1.97 1.26-0.856 0.548-1.68 1.07-1.84 1.17-0.156 0.0942-0.387 0.237-0.513 0.318-0.127 0.0808-0.831 0.53-1.57 0.999l-1.33 0.852 0.291 0.0677c0.434 0.101 0.451 0.0977 0.802-0.148zm-0.804-0.275c0.474-0.307 0.953-0.612 1.1-0.7 0.0558-0.0334 0.426-0.269 0.822-0.524 0.396-0.255 0.914-0.585 1.15-0.734 0.236-0.149 0.555-0.352 0.71-0.452 0.155-0.0997 1.19-0.755 2.29-1.46 1.11-0.702 2.1-1.33 2.21-1.4 0.109-0.0708 0.531-0.34 0.938-0.598s1.01-0.643 1.34-0.855c0.331-0.212 1.11-0.713 1.74-1.11l1.14-0.729-0.201-0.0824c-0.11-0.0454-0.254-0.0851-0.318-0.0883-0.0963-5e-3 -1.23 0.681-2.67 1.61-0.144 0.0934-0.297 0.156-0.341 0.14-0.0433-0.0166-0.0637-6e-3 -0.0453 0.024 0.0357 0.0578-0.327 0.308-1.15 0.796-0.128 0.0755-1.1 0.687-1.52 0.957-0.591 0.38-0.729 0.467-1.47 0.924-0.404 0.25-0.853 0.529-0.999 0.622-0.639 0.406-2.7 1.71-3 1.89-0.178 0.11-0.799 0.499-1.38 0.865-0.581 0.366-1.18 0.739-1.32 0.83-0.275 0.172-0.274 0.174 0.115 0.28 0.346 0.0941 0.426 0.0752 0.852-0.201zm-0.798-0.358c0.342-0.215 0.714-0.449 0.827-0.521 0.113-0.0718 0.827-0.52 1.59-0.997 1.79-1.12 1.74-1.09 2.11-1.33 0.967-0.62 1.65-1.05 1.68-1.05 0.0161 0 0.101-0.0486 0.188-0.108 0.695-0.471 0.887-0.597 0.913-0.597 0.0166 0 0.541-0.325 1.17-0.722 0.624-0.397 1.36-0.861 1.63-1.03 0.275-0.17 0.869-0.544 1.32-0.83 0.452-0.287 1.09-0.687 1.42-0.889 0.331-0.202 0.582-0.385 0.558-0.407-0.0244-0.0216-0.125-0.0663-0.224-0.0992-0.162-0.0539-0.229-0.0309-0.675 0.231-0.273 0.16-0.588 0.351-0.701 0.424-0.113 0.0733-0.377 0.24-0.587 0.37-1.55 0.96-2.28 1.41-2.38 1.46-0.0646 0.0353-0.54 0.324-1.06 0.643-1.05 0.644-1.86 1.14-2.01 1.23-0.0554 0.0327-0.167 0.101-0.248 0.153-0.0808 0.0514-0.49 0.305-0.91 0.563-0.42 0.258-1.17 0.718-1.66 1.02-0.492 0.304-0.942 0.578-0.999 0.611-0.176 0.0997-1.88 1.14-2.3 1.41-0.113 0.0713-0.4 0.251-0.637 0.399l-0.431 0.27 0.284 0.0873c0.156 0.048 0.335 0.0892 0.397 0.0914 0.062 2e-3 0.392-0.172 0.734-0.386zm-1.23-0.0875c0.21-0.134 0.52-0.332 0.689-0.441 0.169-0.109 0.323-0.198 0.342-0.198 0.0189 0 0.145-0.075 0.28-0.167 0.135-0.0916 0.576-0.366 0.98-0.61 0.404-0.244 0.959-0.582 1.23-0.751 0.275-0.169 0.975-0.598 1.56-0.953 0.581-0.355 1.15-0.704 1.26-0.776 0.113-0.0718 0.391-0.245 0.617-0.384 0.226-0.14 0.511-0.316 0.633-0.393 0.122-0.0767 0.307-0.188 0.411-0.248 0.104-0.0594 0.546-0.327 0.982-0.596 0.436-0.268 1.14-0.698 1.56-0.956s0.856-0.527 0.969-0.599c0.24-0.153 1.32-0.815 2-1.22 0.259-0.156 0.456-0.307 0.438-0.336-0.0178-0.0288-0.135-0.0832-0.261-0.121l-0.229-0.0685-1.13 0.693c-1.96 1.2-3.07 1.88-3.87 2.38-0.275 0.171-0.579 0.358-0.675 0.414-0.0969 0.0565-0.48 0.289-0.852 0.518-0.372 0.228-1.01 0.621-1.43 0.872-0.413 0.252-0.816 0.497-0.894 0.546-1.1 0.678-2.12 1.31-3.26 2-0.759 0.462-1.51 0.925-1.67 1.03-0.162 0.103-0.38 0.237-0.485 0.297-0.105 0.0606-0.191 0.129-0.191 0.153 0 0.0359 0.361 0.14 0.558 0.161 0.0326 3e-3 0.231-0.103 0.441-0.236zm-0.536-0.414c0.375-0.232 0.96-0.594 1.3-0.804 0.339-0.21 0.696-0.424 0.793-0.475 0.0969-0.0513 0.295-0.174 0.441-0.273 0.145-0.0988 0.654-0.415 1.13-0.704 0.476-0.288 1.01-0.61 1.17-0.715 0.344-0.213 1.07-0.656 1.23-0.748 0.108-0.0622 1.47-0.903 2.48-1.53 0.323-0.2 0.715-0.441 0.872-0.535 0.156-0.0939 0.369-0.224 0.473-0.288 0.104-0.0646 0.372-0.23 0.597-0.367 0.224-0.137 0.545-0.335 0.714-0.441 0.168-0.105 0.612-0.376 0.986-0.602 0.374-0.226 0.742-0.451 0.817-0.499 0.0757-0.0485 0.273-0.167 0.438-0.264 0.165-0.0969 0.301-0.191 0.301-0.21 3e-5 -0.0183-0.148-0.0798-0.328-0.137l-0.328-0.103-0.215 0.145c-0.118 0.0795-0.519 0.324-0.891 0.544-0.372 0.219-0.808 0.483-0.969 0.586-0.162 0.103-0.552 0.343-0.867 0.533s-0.638 0.385-0.716 0.434c-0.0786 0.0485-0.323 0.196-0.543 0.328-0.22 0.132-1.02 0.618-1.78 1.08-3.21 1.95-3.81 2.32-4.19 2.55-0.221 0.133-0.472 0.285-0.558 0.338-0.323 0.199-2.35 1.43-2.92 1.77-0.323 0.194-0.677 0.414-0.786 0.488l-0.198 0.135 0.257 0.0662c0.141 0.0364 0.283 0.0759 0.316 0.0877 0.171 0.0626 0.34-6e-3 0.962-0.391zm-1.66 0.133c0.0469-0.0453 1.84-1.14 2.41-1.47 0.0969-0.0564 0.401-0.242 0.675-0.412 0.275-0.17 0.579-0.356 0.675-0.412 0.0969-0.0567 0.546-0.329 0.999-0.606s1.22-0.742 1.7-1.04c0.485-0.293 1.33-0.809 1.88-1.15 0.549-0.338 1.06-0.651 1.15-0.695 0.148-0.0815 1.15-0.69 2.41-1.46 0.372-0.228 0.709-0.415 0.749-0.417 0.0404-2e-3 0.0734-0.0225 0.0734-0.0463 0-0.0384 0.112-0.112 0.71-0.464 0.59-0.348 1.11-0.681 1.11-0.711 0-0.0195-0.103-0.0662-0.229-0.104-0.227-0.0679-0.236-0.0642-1.07 0.432-0.463 0.275-0.876 0.488-0.916 0.472-0.0404-0.0155-0.0671-5.2e-4 -0.0594 0.033 0.0077 0.0337-0.356 0.283-0.808 0.555-0.452 0.271-0.875 0.525-0.94 0.564-0.0646 0.0389-0.329 0.202-0.587 0.363-0.258 0.161-0.523 0.321-0.587 0.358-0.0646 0.0361-0.799 0.475-1.63 0.975-0.833 0.5-1.59 0.951-1.67 1-0.476 0.279-4.65 2.79-4.83 2.9-0.113 0.0721-0.595 0.362-1.07 0.645-0.476 0.283-0.866 0.534-0.866 0.559 0 0.0251 0.112 0.0726 0.25 0.106 0.334 0.0804 0.421 0.084 0.488 0.0203zm39.9-1.56c0.0226 0.0173 0.0269 0.0127 9e-3 -0.0101-0.0173-0.0228 0.975-1.05 2.21-2.28l2.24-2.24-2.12-0.525c-1.64-0.407-2.11-0.543-2.09-0.606 0.0235-0.0619 0.0121-0.0661-0.0468-0.0173-0.0582 0.0483-0.974-0.159-3.64-0.825-1.96-0.489-3.58-0.872-3.6-0.851-0.0214 0.0214 0.0323 0.132 0.119 0.246 0.0871 0.114 0.14 0.238 0.117 0.275-0.0258 0.0416-0.0158 0.0514 0.0261 0.0255 0.0392-0.0242 0.0678-6e-3 0.0678 0.0425 0 0.0464 0.037 0.115 0.0821 0.152 0.0451 0.0374 0.286 0.378 0.536 0.756s0.502 0.759 0.562 0.845c0.558 0.803 1.99 2.99 1.99 3.03 0 0.0324 0.0237 0.0677 0.0529 0.0785 0.0465 0.0172 1.77 2.56 1.77 2.61 0 0.0111 0.0849 0.14 0.189 0.287l0.189 0.267 0.651-0.65c0.358-0.357 0.67-0.635 0.693-0.618zm-9.09-3.3 1.45-4.36-2.93-2.89c-1.61-1.59-2.94-2.89-2.95-2.89-0.0346 0 0.0588-0.276-1.6 4.72l-1.35 4.08 2.92 2.92c1.85 1.85 2.94 2.9 2.96 2.85 0.0215-0.0396 0.694-2.03 1.49-4.43zm-31.7 2.98c0.119-0.533 0.305-1.35 0.415-1.82 0.11-0.468 0.267-1.16 0.349-1.53 0.0822-0.372 0.336-1.49 0.564-2.5 0.228-1 0.507-2.23 0.62-2.73s0.259-1.14 0.324-1.41c0.0648-0.275 0.156-0.671 0.202-0.881 0.172-0.777 0.379-1.7 0.576-2.56 0.111-0.485 0.299-1.32 0.418-1.85 0.119-0.533 0.266-1.18 0.327-1.44 0.254-1.08 0.28-1.2 0.253-1.2-0.0157 0-0.188 0.126-0.383 0.279-0.195 0.153-0.441 0.345-0.546 0.426-0.79 0.607-3.72 2.9-4.45 3.48-0.253 0.201-0.534 0.419-0.625 0.484-0.136 0.0968-1.45 1.11-1.76 1.36-0.0485 0.0386-0.197 0.158-0.331 0.265-0.133 0.107-0.517 0.406-0.851 0.664-0.824 0.636-2.53 1.97-2.95 2.31-0.191 0.153-0.387 0.307-0.436 0.343-0.0762 0.0565-0.0703 0.0839 0.0443 0.206 0.0728 0.0772 0.256 0.296 0.406 0.485 0.151 0.19 0.476 0.586 0.723 0.881 0.703 0.84 1.12 1.35 1.31 1.59 0.0969 0.124 0.524 0.64 0.95 1.15 0.59 0.706 0.757 0.941 0.705 0.993-0.0523 0.0527-0.0465 0.0607 0.0246 0.0337 0.063-0.024 0.158 0.045 0.294 0.214 0.11 0.137 0.544 0.663 0.964 1.17 0.42 0.505 0.856 1.03 0.969 1.17 0.113 0.14 0.51 0.623 0.881 1.07l0.675 0.817 0.066-0.255c0.0363-0.14 0.163-0.691 0.282-1.22zm6.36-2.33c3.48-2.09 6.41-3.84 6.5-3.9 0.919-0.532 1.82-1.11 1.82-1.16 0-0.0359-0.648-0.731-1.44-1.54-0.791-0.813-1.6-1.64-1.79-1.84-1.03-1.06-3.93-4.05-4.62-4.75-0.436-0.445-1.15-1.18-1.6-1.64-0.442-0.46-0.814-0.823-0.829-0.807-0.0284 0.0324-0.221 0.833-0.543 2.26-0.259 1.15-0.581 2.56-0.764 3.35-0.0749 0.323-0.231 1.02-0.348 1.56s-0.29 1.3-0.385 1.7c-0.162 0.689-0.368 1.59-0.857 3.76-0.113 0.501-0.268 1.17-0.345 1.5-0.0768 0.323-0.235 1.02-0.351 1.56-0.116 0.533-0.289 1.3-0.384 1.7-0.0948 0.404-0.226 0.985-0.292 1.29-0.066 0.306-0.135 0.604-0.153 0.661-0.0181 0.0572-0.0174 0.104 0.0015 0.104s2.88-1.71 6.36-3.8zm48 0.67c-0.022-0.0727-0.115-0.278-0.206-0.455-0.16-0.311-0.765-1.56-1.35-2.79-0.154-0.323-0.549-1.14-0.879-1.82-0.33-0.678-0.733-1.51-0.897-1.85s-0.608-1.25-0.987-2.03c-0.379-0.779-0.724-1.51-0.766-1.63-0.0423-0.117-0.0981-0.213-0.124-0.213-0.0258 0-0.0469-0.0258-0.0469-0.0574s-0.299-0.673-0.665-1.42c-0.366-0.752-0.821-1.69-1.01-2.09l-0.347-0.723-0.119 0.162c-0.0654 0.089-0.327 0.467-0.581 0.84-1.19 1.74-1.79 2.62-2.2 3.2-0.114 0.162-0.457 0.664-0.762 1.12-0.305 0.452-0.593 0.867-0.641 0.922-0.0772 0.0894 0.0638 0.398 1.39 3.05 0.814 1.63 1.5 2.98 1.53 3.01 0.0442 0.0464 8.54 2.9 8.65 2.91 0.0264 2e-3 0.03-0.0565 8e-3 -0.129zm-28.8-7.25c0.806-2.41 1.47-4.4 1.48-4.43 0.016-0.0418-5.75-2.94-5.85-2.94-0.0507 0-5.8 8.59-5.86 8.77-0.0212 0.0565-0.029 0.103-0.0175 0.104 0.0115 5.1e-4 0.999 0.331 2.19 0.735 1.2 0.404 2.23 0.747 2.29 0.762 0.0646 0.0158 1 0.33 2.09 0.697 1.08 0.368 2.02 0.672 2.09 0.675 0.108 6e-3 0.269-0.436 1.59-4.38zm19.6 4.1c-0.0732-0.153-0.443-0.899-0.821-1.66-0.378-0.758-0.674-1.41-0.658-1.46 0.0168-0.0436 6e-3 -0.0642-0.0237-0.0459-0.0298 0.0184-1.65-3.15-3.6-7.04-1.95-3.89-3.56-7.05-3.58-7.01-0.021 0.0397-0.0562 0.172-0.0782 0.295-0.0329 0.183-4e-3 0.297 0.164 0.646 0.536 1.12 1.04 2.17 1.04 2.19 0 0.01 0.254 0.542 0.563 1.18 0.31 0.64 0.677 1.42 0.816 1.72 0.139 0.307 0.469 1.01 0.734 1.56 0.265 0.549 0.72 1.51 1.01 2.14 0.292 0.63 0.549 1.17 0.573 1.2 0.0235 0.0323 0.295 0.601 0.604 1.26 0.309 0.662 0.775 1.65 1.04 2.19 0.261 0.541 0.475 0.996 0.475 1.01 0 0.0138 0.198 0.436 0.439 0.938 0.385 0.8 0.459 0.917 0.602 0.949 0.0897 0.02 0.282 0.0708 0.427 0.113 0.412 0.119 0.418 0.115 0.273-0.19zm-1.09-0.0432c0-0.0517-1.01-2.23-1.06-2.29-0.0269-0.0299-0.0165-0.0945 0.0232-0.143 0.0538-0.0666 0.0542-0.0783 2e-3 -0.0467-0.0945 0.0567-0.0488 0.147-1.69-3.36-0.147-0.312-0.291-0.613-0.322-0.668-0.0305-0.055-0.318-0.663-0.639-1.35s-0.708-1.5-0.859-1.81c-0.152-0.307-0.389-0.809-0.527-1.12-0.138-0.307-0.462-0.994-0.719-1.53-0.257-0.533-0.735-1.54-1.06-2.23-0.326-0.695-0.658-1.39-0.736-1.56l-0.142-0.294-0.0653 0.235c-0.093 0.335-0.0824 0.472 0.0573 0.746 0.0678 0.133 0.157 0.337 0.198 0.453 0.0413 0.116 0.222 0.528 0.401 0.916 0.312 0.676 0.757 1.67 1.8 4.02 0.265 0.598 0.641 1.44 0.837 1.88 0.954 2.13 0.896 2 1.34 3 0.284 0.639 0.663 1.49 0.833 1.88 0.0641 0.145 0.23 0.515 0.369 0.822 0.139 0.307 0.406 0.902 0.593 1.32 0.187 0.42 0.362 0.79 0.39 0.822 0.0275 0.0323 0.241 0.115 0.474 0.184 0.483 0.143 0.513 0.149 0.513 0.11zm-1.19-0.339c-0.0157-0.0404-0.154-0.351-0.308-0.69-0.154-0.339-0.345-0.762-0.425-0.94-0.171-0.378-0.709-1.59-1.19-2.67-0.185-0.42-0.392-0.883-0.458-1.03-0.158-0.344-0.381-0.842-0.671-1.5-0.129-0.291-0.335-0.753-0.458-1.03-0.123-0.275-0.264-0.592-0.312-0.705-0.0483-0.113-0.225-0.507-0.392-0.876-0.167-0.369-0.326-0.725-0.351-0.793-0.0258-0.0676-0.198-0.453-0.383-0.857-0.388-0.849-0.398-0.87-0.998-2.23-0.249-0.565-0.534-1.2-0.633-1.41l-0.18-0.382-0.0523 0.264c-0.0714 0.361-0.0338 0.555 0.218 1.13 0.119 0.269 0.303 0.701 0.409 0.96 0.106 0.258 0.411 0.972 0.677 1.59 0.266 0.614 0.556 1.29 0.643 1.5 0.181 0.433 1.28 3 2.07 4.85 0.806 1.87 0.93 2.17 0.967 2.26 0.0185 0.0485 0.099 0.233 0.179 0.411 0.0798 0.178 0.18 0.416 0.222 0.529 0.0422 0.113 0.205 0.496 0.363 0.852l0.286 0.646 0.35 0.0981c0.437 0.122 0.457 0.124 0.422 0.0341zm-0.999-0.294c-0.0162-0.0404-0.214-0.496-0.44-1.01-0.226-0.517-0.748-1.73-1.16-2.7-0.412-0.969-0.853-2-0.979-2.29-0.127-0.291-0.28-0.648-0.341-0.793s-0.201-0.476-0.312-0.734c-0.111-0.258-0.393-0.919-0.627-1.47-0.234-0.549-0.46-1.08-0.503-1.17-0.0423-0.0969-0.398-0.929-0.791-1.85s-0.734-1.69-0.758-1.72c-0.0242-0.0253-0.0759 0.0963-0.115 0.27-0.0783 0.35-0.0992 0.283 0.608 1.95 0.151 0.355 0.296 0.712 0.321 0.793 0.0258 0.0808 0.119 0.303 0.207 0.493 0.0878 0.19 0.195 0.441 0.238 0.558 0.0432 0.116 0.214 0.529 0.38 0.917 0.166 0.388 0.341 0.811 0.388 0.94s0.162 0.407 0.255 0.617c0.093 0.21 0.425 1 0.738 1.76 0.313 0.759 0.669 1.62 0.791 1.91 0.256 0.608 0.816 1.95 1.19 2.85 0.247 0.595 0.263 0.618 0.488 0.686 0.313 0.0944 0.458 0.0965 0.422 6e-3zm-0.914-0.323c-0.0611-0.121-0.131-0.286-0.156-0.367-0.0246-0.0808-0.134-0.34-0.242-0.577s-0.198-0.443-0.198-0.458c0-0.0257-0.271-0.684-0.613-1.49-0.212-0.5-0.503-1.2-1.12-2.7-0.313-0.759-0.682-1.64-0.819-1.97-0.137-0.323-0.342-0.812-0.456-1.09-0.114-0.275-0.344-0.83-0.512-1.23-0.563-1.35-0.696-1.67-0.883-2.13-0.102-0.25-0.207-0.442-0.233-0.427-0.0482 0.0298-0.151 0.638-0.134 0.796 6e-3 0.0496 0.21 0.565 0.455 1.15 0.245 0.58 0.507 1.2 0.582 1.38 0.0746 0.178 0.231 0.548 0.348 0.822 0.117 0.275 0.493 1.17 0.835 2 0.342 0.824 0.751 1.8 0.907 2.17s0.422 1.01 0.59 1.41c0.358 0.86 0.528 1.26 0.908 2.15 0.265 0.618 0.291 0.655 0.493 0.712 0.361 0.102 0.373 0.0951 0.251-0.145zm-0.749-0.176c-0.0525-0.121-0.155-0.366-0.227-0.543-0.141-0.346-0.244-0.593-0.823-1.97-0.204-0.485-0.547-1.3-0.762-1.82-0.215-0.517-0.481-1.15-0.59-1.41-0.109-0.258-0.375-0.893-0.591-1.41-1.23-2.94-1.67-3.98-1.7-4.01-0.01-0.0103-0.0584 0.158-0.108 0.374l-0.0896 0.393 0.339 0.83c0.186 0.456 0.451 1.11 0.588 1.45 0.137 0.339 0.311 0.762 0.386 0.94 0.0751 0.178 0.217 0.521 0.315 0.764 0.222 0.549 0.524 1.29 0.793 1.94 0.651 1.58 1.07 2.61 1.44 3.49l0.407 0.999 0.345 0.0981c0.19 0.0539 0.352 0.1 0.361 0.103 9e-3 2e-3 -0.0275-0.0944-0.0801-0.216zm-0.973-0.441c-0.588-1.44-0.842-2.06-0.99-2.42-0.284-0.7-0.672-1.64-1.22-2.97-0.127-0.307-0.409-0.994-0.625-1.53-0.666-1.64-1.09-2.65-1.12-2.69-7e-3 -9e-3 -0.0584 0.212-0.114 0.491-0.112 0.562-0.13 0.465 0.265 1.4 0.6 1.43 1.01 2.41 1.25 3 0.284 0.7 0.806 1.95 1.13 2.7 0.204 0.478 0.55 1.31 0.797 1.92 0.125 0.309 0.157 0.344 0.375 0.4 0.131 0.0337 0.265 0.0709 0.297 0.0828 0.0323 0.0119 0.076 0.0236 0.0971 0.0262 0.0211 2e-3 -0.0401-0.187-0.136-0.421zm-0.695 0.171c0-0.0111-0.175-0.441-0.388-0.954-0.214-0.514-0.448-1.08-0.521-1.26-0.073-0.178-0.2-0.482-0.283-0.675-0.206-0.485-0.888-2.12-1.14-2.73-0.112-0.275-0.267-0.645-0.344-0.822-0.138-0.317-0.489-1.17-0.71-1.72-0.0615-0.153-0.126-0.279-0.144-0.279-0.0455-3.1e-4 -0.173 0.644-0.173 0.874 0 0.105 0.148 0.527 0.329 0.936 0.508 1.15 0.727 1.65 0.905 2.07 0.0901 0.21 0.366 0.844 0.613 1.41 0.247 0.565 0.528 1.21 0.625 1.44 0.575 1.35 0.728 1.64 0.876 1.68 0.165 0.0456 0.352 0.0629 0.352 0.0324zm-0.83-0.435c-0.0654-0.153-0.16-0.371-0.211-0.483-0.26-0.574-0.626-1.41-0.72-1.65-0.0582-0.145-0.217-0.515-0.353-0.822s-0.321-0.73-0.412-0.94c-0.0907-0.21-0.276-0.633-0.411-0.94-0.135-0.307-0.32-0.73-0.41-0.94-0.0904-0.21-0.228-0.524-0.307-0.698l-0.143-0.316-0.0987 0.503c-0.0543 0.276-0.0987 0.554-0.0987 0.617 0 0.129 0.193 0.553 1.45 3.18 0.255 0.533 0.634 1.34 0.843 1.8 0.359 0.783 0.392 0.833 0.586 0.888 0.407 0.117 0.419 0.108 0.286-0.205zm-1.08-0.784c-0.543-1.18-0.705-1.52-1.27-2.7-0.271-0.565-0.572-1.21-0.667-1.42-0.0957-0.217-0.188-0.396-0.204-0.396-0.0166-2e-3 -0.0882 0.276-0.159 0.616l-0.129 0.618 0.65 1.19c0.358 0.654 0.737 1.35 0.843 1.54 0.74 1.35 0.69 1.29 1 1.36 0.158 0.0353 0.295 0.0591 0.303 0.053 9e-3 -6e-3 -0.16-0.392-0.374-0.857zm-0.479 0.578c-0.0322-0.0404-0.177-0.298-0.323-0.573-0.3-0.567-1.2-2.22-1.47-2.7l-0.182-0.323-0.0699 0.314c-0.0825 0.37-0.121 0.26 0.626 1.8 0.296 0.612 0.56 1.17 0.587 1.24 0.035 0.0891 0.147 0.15 0.391 0.214 0.446 0.117 0.519 0.121 0.445 0.0279zm-0.974-0.206c-0.0455-0.0746-0.867-1.79-1.02-2.12-0.0782-0.174-0.157-0.301-0.175-0.283-0.0388 0.0388-0.43 2-0.404 2.03 0.0257 0.0257 1.46 0.412 1.55 0.418 0.0423 2e-3 0.0648-0.0149 0.05-0.0392zm-19.4-1.57c0.401-0.6 0.781-1.18 0.846-1.28 0.0646-0.105 0.27-0.414 0.457-0.686 0.609-0.889 3.81-5.71 3.84-5.78 0.0185-0.0482-5.71-3.94-6.31-4.29-0.0558-0.0323-0.664-0.436-1.35-0.897-1.23-0.823-1.25-0.837-1.41-0.752-0.0871 0.0474-0.409 0.23-0.716 0.405s-0.677 0.384-0.822 0.464c-0.237 0.13-1.59 0.885-2.11 1.18-0.113 0.0635-0.43 0.241-0.705 0.394s-0.605 0.339-0.734 0.412c-0.579 0.331-1.61 0.909-1.85 1.04-0.145 0.078-0.26 0.156-0.254 0.173 0.0055 0.017 0.428 0.461 0.94 0.988 2.48 2.56 4.43 4.56 4.81 4.94 0.508 0.518 3.67 3.77 4.23 4.35 0.226 0.235 0.414 0.428 0.417 0.429 0.0031 2e-3 0.334-0.489 0.734-1.09zm17.7-0.128c0.122-0.606 0.314-1.55 0.426-2.1 0.112-0.549 0.664-3.31 1.23-6.13 0.76-3.81 1.05-5.16 1.13-5.26 0.105-0.124 0.105-0.125-3e-3 -0.0396-0.0615 0.0479-0.124 0.0745-0.139 0.0591-0.0148-0.0154-1.3 0.606-2.86 1.38l-2.83 1.41-3.02 5.99 2.89 2.89c1.59 1.59 2.91 2.89 2.92 2.89 0.0163-2e-5 0.13-0.496 0.252-1.1zm-41.7 0.0905c0.122-0.104 0.233-0.196 0.246-0.205 0.0243-0.0166-0.263-0.507-0.63-1.08-0.115-0.178-0.265-0.416-0.334-0.529-0.0691-0.113-0.229-0.364-0.355-0.558-0.126-0.194-0.259-0.405-0.295-0.47-0.0362-0.0646-0.456-0.739-0.934-1.5-0.477-0.759-0.911-1.45-0.963-1.54-0.0524-0.0866-0.235-0.377-0.405-0.646-0.286-0.45-0.667-1.06-2.3-3.68l-0.597-0.955-0.229 0.162c-0.126 0.0889-0.229 0.176-0.23 0.194-6.68e-4 0.0178 0.227 0.401 0.505 0.852 0.632 1.02 0.664 1.07 0.85 1.39 0.0836 0.14 0.293 0.48 0.464 0.755s0.481 0.777 0.688 1.12c0.455 0.745 1.26 2.05 1.61 2.61 0.284 0.458 1.06 1.72 1.99 3.25 0.339 0.554 0.636 1.01 0.659 1.01 0.0231 1.1e-4 0.142-0.0847 0.264-0.188zm0.776-0.624 0.201-0.17-0.427-0.669c-0.235-0.368-0.633-0.986-0.885-1.37-0.787-1.21-1.61-2.49-1.68-2.6-0.0334-0.0568-0.216-0.341-0.405-0.632-0.462-0.709-0.889-1.37-1.24-1.92-0.16-0.251-0.502-0.781-0.76-1.18-0.258-0.396-0.639-0.984-0.845-1.31-0.206-0.322-0.447-0.696-0.534-0.831l-0.159-0.246-0.214 0.146c-0.118 0.0801-0.214 0.178-0.213 0.217 6.69e-4 0.0392 0.113 0.247 0.25 0.461 0.137 0.214 0.345 0.545 0.462 0.734 0.118 0.19 0.432 0.688 0.699 1.11 0.267 0.42 0.522 0.83 0.566 0.91 0.0444 0.0807 0.381 0.623 0.749 1.2 0.367 0.581 0.94 1.49 1.27 2.03 0.332 0.533 0.688 1.1 0.791 1.26 0.103 0.162 0.511 0.809 0.908 1.44 1.15 1.83 1.06 1.71 1.17 1.64 0.052-0.0302 0.185-0.131 0.295-0.225zm0.956-0.852c-0.0291-0.0374-0.312-0.464-0.628-0.949s-0.803-1.22-1.08-1.64c-0.278-0.418-0.518-0.788-0.535-0.822-0.0162-0.0339-0.415-0.643-0.886-1.35-1.06-1.6-2.07-3.13-2.82-4.29-0.316-0.485-0.67-1.02-0.788-1.19l-0.213-0.311-0.16 0.105c-0.088 0.0579-0.222 0.15-0.297 0.205l-0.137 0.0994 0.364 0.576c0.2 0.317 0.6 0.933 0.888 1.37 0.288 0.436 0.543 0.833 0.565 0.881 0.0225 0.0485 0.122 0.209 0.221 0.357 0.0991 0.148 0.378 0.578 0.621 0.956 0.242 0.378 0.599 0.933 0.793 1.23 0.194 0.3 0.495 0.769 0.669 1.04 0.174 0.272 0.455 0.706 0.624 0.965 0.497 0.76 1.26 1.95 1.73 2.68l0.436 0.685 0.344-0.265c0.234-0.18 0.327-0.286 0.291-0.333zm0.434-0.225c0.143-0.102 0.259-0.195 0.259-0.207 0-0.0334-0.268-0.449-1.05-1.63-0.407-0.614-0.75-1.14-0.762-1.17-0.0128-0.0302-0.174-0.281-0.358-0.558-0.634-0.952-2.48-3.77-2.73-4.17-0.0923-0.147-0.139-0.278-0.109-0.308 0.0296-0.0295 0.16 0.117 0.307 0.344 0.141 0.218 0.498 0.766 0.794 1.22 0.296 0.452 0.881 1.35 1.3 1.98 0.418 0.639 1.14 1.73 1.6 2.43s0.837 1.29 0.837 1.31c0 0.0201 0.0727 0.123 0.162 0.23l0.162 0.193 0.252-0.183c0.139-0.101 0.266-0.219 0.283-0.263 0.0169-0.0441-0.156-0.367-0.384-0.717s-0.677-1.05-0.997-1.55c-0.32-0.501-0.935-1.46-1.37-2.13s-0.811-1.27-0.845-1.32c-0.0332-0.054-0.189-0.296-0.346-0.539-0.587-0.905-0.935-1.45-1.06-1.64-0.159-0.256-0.43-0.674-0.95-1.47-0.222-0.339-0.417-0.643-0.433-0.675-0.0162-0.0323-0.103-0.173-0.194-0.312l-0.165-0.253-0.188 0.126c-0.103 0.069-0.273 0.179-0.377 0.244l-0.19 0.118 0.224 0.333c0.123 0.183 0.404 0.61 0.625 0.949 0.22 0.339 0.529 0.813 0.686 1.05 0.169 0.258 0.264 0.458 0.233 0.489-0.043 0.043-0.527-0.595-0.655-0.863-0.0277-0.058-1.17-1.8-1.2-1.84-0.0091-0.01-0.15 0.0642-0.313 0.165l-0.297 0.183 0.305 0.472c0.168 0.26 0.358 0.556 0.423 0.658s0.318 0.49 0.563 0.861c0.245 0.371 0.48 0.741 0.523 0.822 0.0426 0.0808 0.0955 0.16 0.118 0.176 0.0399 0.0291 1.06 1.56 1.12 1.67 0.0165 0.0334 0.267 0.418 0.557 0.854 0.29 0.436 0.554 0.838 0.587 0.894 0.033 0.0556 0.129 0.201 0.214 0.323 0.169 0.244 1.35 2.05 2.08 3.17 0.256 0.394 0.474 0.718 0.485 0.72 0.0109 2e-3 0.136-0.0811 0.279-0.183zm49.2-1.19c0.267-0.388 0.711-1.04 0.987-1.44 0.275-0.404 0.757-1.11 1.07-1.56 0.314-0.456 0.741-1.08 0.948-1.38s0.466-0.676 0.574-0.828c0.141-0.199 0.179-0.298 0.137-0.352-0.0581-0.0748-0.498-0.916-1.52-2.9-0.282-0.549-0.652-1.26-0.822-1.59s-0.554-1.06-0.853-1.64c-0.64-1.24-1.45-2.81-2.53-4.88-0.185-0.355-0.596-1.15-0.913-1.76-0.317-0.614-0.62-1.19-0.673-1.28-0.0947-0.157-0.115-0.102-1.55 4.21l-1.46 4.37 2.87 5.75c1.58 3.16 2.92 5.84 2.98 5.95 0.125 0.242 0.0937 0.27 0.741-0.668zm-47.7 0.0253 0.285-0.239-0.13-0.198c-0.0718-0.109-0.345-0.51-0.607-0.892-0.262-0.381-0.72-1.05-1.02-1.49-0.753-1.11-1.68-2.47-2.32-3.41-0.298-0.436-0.775-1.14-1.06-1.56-0.285-0.42-0.743-1.09-1.02-1.5-0.274-0.404-0.578-0.853-0.676-0.999-0.0972-0.145-0.185-0.275-0.195-0.287-0.0098-0.0127-0.109 0.0396-0.221 0.116l-0.203 0.139 0.126 0.207c0.0692 0.114 0.367 0.577 0.663 1.03 0.81 1.24 0.86 1.33 0.827 1.41-0.0173 0.0451-3.3e-5 0.0692 0.0399 0.0556 0.0387-0.0132 0.229 0.227 0.423 0.533 0.194 0.307 0.564 0.887 0.822 1.29 0.258 0.402 0.642 1 0.852 1.33 0.751 1.17 0.844 1.32 1.09 1.7 0.782 1.21 1.05 1.63 1.46 2.28 0.253 0.396 0.486 0.72 0.518 0.72 0.0318 0 0.186-0.108 0.343-0.239zm0.663-0.52c0.436-0.3 0.436-0.281 0.0199-0.894-0.812-1.2-1.67-2.46-2.15-3.16-0.458-0.673-1.89-2.8-2.55-3.79-0.151-0.226-0.298-0.439-0.325-0.473-0.0272-0.0341-0.126-0.179-0.219-0.323-0.0932-0.144-0.185-0.274-0.203-0.291-0.0187-0.0162-0.28-0.399-0.58-0.852-0.3-0.452-0.551-0.828-0.558-0.836-0.0065-7e-3 -0.172 0.0965-0.369 0.231l-0.357 0.245 0.126 0.191c0.0693 0.105 0.417 0.616 0.772 1.14 0.355 0.52 0.686 1.01 0.734 1.09 0.0484 0.0775 0.3 0.447 0.558 0.821 0.258 0.374 0.736 1.07 1.06 1.55s0.879 1.29 1.23 1.81c0.63 0.922 1.34 1.97 2.01 2.97 0.184 0.275 0.369 0.534 0.41 0.577 0.0412 0.0427 0.0749 0.102 0.0749 0.132 0 0.0851 0.0486 0.0672 0.316-0.117zm1.04-0.817c0-0.0157-0.168-0.282-0.373-0.592-0.53-0.799-2.11-3.19-2.65-4.03-0.253-0.388-0.895-1.37-1.43-2.17-0.532-0.808-1.17-1.79-1.43-2.17-0.254-0.388-0.543-0.824-0.644-0.969-0.1-0.145-0.203-0.3-0.228-0.343-0.0352-0.0603-0.122-0.0269-0.377 0.145-0.182 0.123-0.331 0.239-0.331 0.258 0 0.0192 0.306 0.483 0.681 1.03 0.374 0.547 1.02 1.5 1.43 2.11 0.411 0.614 0.902 1.34 1.09 1.62 0.677 0.982 0.961 1.4 1.92 2.82 0.534 0.791 1.16 1.72 1.4 2.07l0.427 0.63 0.258-0.185c0.142-0.102 0.258-0.198 0.258-0.213zm0.783-0.598c0.148-0.113 0.271-0.219 0.272-0.236 0.0013-0.0168-0.0837-0.154-0.189-0.305-0.225-0.324-1.98-2.79-2.23-3.13-0.521-0.715-1.11-1.54-1.86-2.58-0.459-0.646-1-1.41-1.21-1.7s-0.433-0.608-0.501-0.705c-0.068-0.0969-0.249-0.35-0.401-0.561-0.153-0.212-0.37-0.522-0.483-0.689-0.113-0.167-0.225-0.304-0.248-0.305-0.1-3e-3 -0.575 0.382-0.55 0.447 0.015 0.0391 0.32 0.515 0.679 1.06 0.358 0.542 0.638 1.02 0.622 1.06-0.0159 0.0413-1e-3 0.0689 0.033 0.0613 0.0791-0.0179 0.122 0.0422 1.06 1.48 0.433 0.662 1.1 1.68 1.49 2.26 0.385 0.581 0.713 1.08 0.729 1.12 0.0162 0.0323 0.361 0.561 0.766 1.17s0.878 1.33 1.05 1.6l0.314 0.483 0.189-0.16c0.104-0.088 0.31-0.252 0.459-0.366zm30.8-3.11 1.46-2.94-2.94-5.88c-1.62-3.23-2.94-5.86-2.94-5.84 0 0.0189-0.0503 0.278-0.112 0.577-0.509 2.47-2.41 11.9-2.44 12.1-0.0168 0.113-0.112 0.601-0.213 1.08-0.1 0.483-0.16 0.887-0.132 0.898 0.0276 0.0103 1.35 0.674 2.93 1.48 1.58 0.801 2.89 1.45 2.9 1.44 0.0103-7e-3 0.678-1.34 1.48-2.96zm-29.9 2.42c0.269-0.204 0.422-0.358 0.393-0.396-0.0254-0.0343-0.204-0.261-0.398-0.503-0.193-0.242-0.509-0.639-0.701-0.881-0.192-0.242-0.362-0.454-0.379-0.47-0.0162-0.0162-0.292-0.36-0.612-0.764-0.321-0.404-0.679-0.853-0.797-0.999-0.71-0.877-1.46-1.81-1.56-1.94-0.0646-0.0871-0.593-0.747-1.17-1.47-1.17-1.45-1.54-1.92-1.78-2.24-0.187-0.257-0.224-0.264-0.437-0.09l-0.16 0.132 0.534 0.734c0.685 0.942 0.827 1.17 0.785 1.23-0.019 0.0307-1.17e-4 0.0437 0.0419 0.0287 0.046-0.0164 0.225 0.189 0.449 0.515 0.205 0.298 0.46 0.661 0.568 0.806 0.108 0.145 0.323 0.449 0.479 0.675 0.156 0.226 0.627 0.887 1.05 1.47s0.843 1.17 0.94 1.31c1.06 1.51 2.27 3.18 2.3 3.18 0.0089 0 0.214-0.15 0.456-0.334zm1.07-0.829c0.202-0.152 0.368-0.312 0.37-0.356 0.0014-0.0439-0.269-0.374-0.6-0.734-0.332-0.36-0.812-0.892-1.07-1.18-0.255-0.291-0.506-0.568-0.557-0.617-0.0512-0.0485-0.292-0.313-0.535-0.587-0.243-0.275-0.577-0.645-0.741-0.822-0.164-0.178-0.467-0.513-0.674-0.745-1.19-1.34-2.32-2.58-2.38-2.62-0.042-0.0258-0.0764-0.0689-0.0764-0.0959 0-0.0269-0.0991-0.151-0.22-0.276-0.121-0.125-0.454-0.484-0.74-0.799-0.543-0.598-0.539-0.596-0.818-0.387-0.0957 0.0716-0.0487 0.148 0.571 0.929 0.371 0.468 0.697 0.878 0.723 0.91 0.0262 0.0323 0.245 0.3 0.486 0.596 0.635 0.778 2.18 2.71 2.32 2.89 0.0646 0.0875 0.342 0.434 0.617 0.77 0.275 0.336 0.552 0.683 0.617 0.77 0.131 0.177 1.02 1.28 1.11 1.38 0.0332 0.0357 0.219 0.271 0.413 0.522 0.584 0.759 0.626 0.802 0.725 0.764 0.0507-0.0195 0.257-0.16 0.459-0.312zm0.926-0.731c0.171-0.137 0.38-0.302 0.466-0.367l0.156-0.117-0.98-0.999c-0.539-0.549-1.99-2.03-3.22-3.29-1.23-1.26-2.71-2.77-3.29-3.36l-1.05-1.07-0.169 0.0996c-0.0927 0.0548-0.235 0.153-0.317 0.219l-0.148 0.119 0.164 0.179c0.794 0.868 3.44 3.8 3.83 4.25 0.272 0.311 0.618 0.697 0.77 0.859 0.151 0.162 0.669 0.732 1.15 1.27 1.97 2.19 2.22 2.46 2.27 2.46 0.0286 0 0.192-0.112 0.362-0.25zm1.24-0.961c0.226-0.181 0.464-0.367 0.529-0.414 0.116-0.0839 0.116-0.0863-0.0294-0.203-0.0808-0.0647-0.215-0.181-0.299-0.258-0.0839-0.077-0.389-0.347-0.678-0.599-2.35-2.05-2.98-2.61-3.35-2.96-0.234-0.223-0.426-0.39-0.426-0.371 0 0.0267-1.03-0.848-1.45-1.23-0.0956-0.0877-0.346-0.307-0.906-0.793-0.273-0.237-0.524-0.461-0.556-0.497-0.0323-0.0358-0.133-0.123-0.224-0.193-0.091-0.0702-0.391-0.334-0.666-0.586s-0.519-0.465-0.542-0.474c-0.0224-9e-3 -0.123 0.0453-0.224 0.12l-0.183 0.135 0.64 0.664c0.352 0.365 0.641 0.668 0.641 0.673 2.93e-4 6e-3 0.536 0.553 1.19 1.22s1.73 1.76 2.39 2.44c2.82 2.89 3.6 3.67 3.66 3.67 0.0381-1.8e-4 0.254-0.148 0.48-0.329zm19.9-4.47c0.479-2.41 0.962-4.83 1.07-5.36 0.522-2.53 0.959-4.78 0.934-4.81-0.0155-0.0155-0.127 0.0506-0.248 0.147-0.121 0.0962-0.485 0.373-0.808 0.616-0.323 0.242-1.16 0.875-1.87 1.41-0.705 0.531-1.36 1.02-1.45 1.08-0.0906 0.0646-0.32 0.235-0.51 0.378-0.19 0.143-1.51 1.13-2.93 2.2-1.42 1.06-2.65 1.99-2.74 2.06-0.086 0.0681-0.37 0.282-0.631 0.475-0.261 0.193-0.473 0.365-0.471 0.382 0.0021 0.0165 0.405 0.294 0.895 0.617s0.918 0.608 0.951 0.633c0.258 0.198 6.83 4.56 6.87 4.56 0.0323 2e-3 0.451-1.97 0.93-4.39zm-19 3.73c0.413-0.289 1.07-0.824 1.07-0.871 0-0.028-0.225-0.205-0.499-0.392-0.275-0.188-0.79-0.541-1.15-0.786-0.726-0.499-1.56-1.07-2.73-1.87-0.86-0.586-1.91-1.31-2.7-1.86-1.2-0.829-1.69-1.17-1.97-1.36-0.162-0.109-0.399-0.277-0.529-0.374-0.129-0.097-0.294-0.203-0.367-0.235-0.0727-0.0322-0.132-0.0739-0.132-0.0928s0.0264-0.0179 0.0587 2e-3c0.105 0.065 0.062-8e-3 -0.0724-0.123-0.107-0.0911-0.116-0.0928-0.0515-9e-3 0.0951 0.123-7e-3 0.14-0.108 0.0182-0.0386-0.0466-0.11-0.0695-0.158-0.0509-0.0995 0.0382 0.142 0.268 1.68 1.6 0.533 0.461 1.14 1 1.35 1.2 0.21 0.198 0.434 0.387 0.499 0.421 0.0649 0.0333 0.118 0.0993 0.118 0.147 0 0.0475 0.0396 0.0864 0.0881 0.0864s0.0893 0.0396 0.0908 0.0881c0.0014 0.0485 0.0358 0.0811 0.0762 0.0724 0.0578-0.0123 0.713 0.528 1.51 1.25 0.0359 0.0323 0.142 0.125 0.235 0.206 0.887 0.768 1.6 1.39 1.67 1.46 0.0513 0.0504 0.263 0.24 0.47 0.422 0.207 0.182 0.588 0.518 0.847 0.746 0.258 0.229 0.479 0.417 0.49 0.418 0.0112 2e-3 0.104-0.056 0.206-0.127zm3.5-2.24c0.921-0.517 1.82-1.02 2-1.12 0.178-0.0972 0.614-0.341 0.969-0.542s0.765-0.432 0.91-0.513c0.145-0.0813 0.525-0.296 0.845-0.477 0.319-0.181 0.598-0.329 0.619-0.329 0.0289 0 0.672-3.09 1.04-4.99 0.0156-0.0807 0.321-1.6 0.678-3.38 0.357-1.78 0.674-3.38 0.704-3.55 0.0301-0.178 0.13-0.68 0.223-1.12 0.261-1.23 0.38-1.87 0.352-1.9-0.0141-0.0136-1.99 0.631-4.4 1.43-3.58 1.19-4.38 1.48-4.39 1.57-0.0301 0.228-0.258 2.68-0.341 3.66-0.0475 0.565-0.166 1.86-0.262 2.88-0.0969 1.02-0.242 2.56-0.322 3.44-0.239 2.61-0.501 5.38-0.54 5.72l-0.0363 0.315 0.141-0.0747c0.0776-0.0411 0.894-0.498 1.82-1.01zm-2.48 0.826c-0.0163-0.0404-0.218-0.559-0.448-1.15-0.391-1.01-0.673-1.73-1.15-2.94-0.108-0.275-0.32-0.816-0.47-1.2-0.15-0.388-0.414-1.06-0.586-1.5-0.172-0.436-0.409-1.04-0.527-1.35-0.243-0.633-0.438-1.13-0.996-2.56-0.52-1.33-1.12-2.85-1.55-3.96-1.37-3.53-1.5-3.84-1.52-3.78-0.0088 0.0271-0.664 2.64-1.46 5.8l-1.44 5.76 0.132 0.103c0.0728 0.0567 0.357 0.256 0.632 0.444 0.275 0.187 0.975 0.67 1.56 1.07 0.581 0.402 1.37 0.948 1.76 1.21 1.06 0.721 2.42 1.66 3.38 2.31 0.468 0.322 1.1 0.757 1.41 0.967 0.307 0.21 0.703 0.484 0.881 0.61 0.345 0.244 0.442 0.285 0.394 0.167zm0.421-1.64c0.0722-0.783 0.221-2.39 0.331-3.57 0.11-1.18 0.268-2.9 0.352-3.82 0.0837-0.921 0.216-2.35 0.294-3.17 0.366-3.85 0.349-3.59 0.248-3.67-0.0505-0.037-0.326-0.141-0.611-0.231-0.286-0.09-0.744-0.243-1.02-0.341-0.275-0.0975-0.592-0.201-0.705-0.229-0.113-0.0287-1.57-0.511-3.25-1.07s-3.04-0.999-3.04-0.976c0 0.0236 0.253 0.686 0.562 1.47 0.309 0.787 0.689 1.76 0.844 2.16 0.155 0.404 0.5 1.29 0.767 1.97 0.267 0.678 0.573 1.46 0.68 1.75 0.107 0.283 0.22 0.56 0.252 0.617 0.042 0.0751 0.0309 0.135-0.041 0.22-0.0929 0.11-0.0927 0.112 0.0031 0.0376 0.0899-0.0696 0.109-0.0591 0.165 0.0891 0.0346 0.0924 0.204 0.525 0.376 0.961 0.172 0.436 0.425 1.08 0.561 1.44 0.25 0.652 0.841 2.16 1.21 3.08 0.109 0.275 0.347 0.883 0.529 1.35 0.182 0.468 0.445 1.14 0.584 1.5 0.139 0.355 0.348 0.89 0.465 1.19 0.117 0.299 0.212 0.57 0.212 0.602 0 0.0326 0.0218 0.0591 0.0484 0.0591 0.0266 0 0.108-0.641 0.18-1.42zm29-0.75 2.9-1.44 0.335-1.03c0.525-1.61 0.548-1.66 0.663-1.58 0.0898 0.0673 0.0901 0.0649 3e-3 -0.0304-0.0872-0.0959-0.0217-0.32 0.889-3.05 0.541-1.62 1-3.01 1.02-3.08l0.0397-0.132h-14.8l2.93 5.85c1.61 3.22 2.94 5.88 2.96 5.91 0.0182 0.0295 0.0594 0.0451 0.0913 0.0344 0.032-0.0107 1.36-0.666 2.96-1.46zm-20.8-2c0.176-0.133 0.321-0.252 0.321-0.264 0-0.0455-0.427-0.492-0.47-0.492-0.0249 0-0.077 0.178-0.116 0.396-0.0388 0.218-0.0832 0.443-0.0987 0.499-0.0407 0.149 0.0067 0.131 0.364-0.139zm0.907-0.716c0.0015-0.059-0.655-0.925-0.779-1.03-0.0794-0.066-0.0998-0.0323-0.161 0.265-0.0385 0.188-0.0808 0.359-0.0938 0.381-0.0131 0.022 0.11 0.201 0.274 0.398l0.298 0.358 0.23-0.163c0.127-0.0896 0.231-0.184 0.232-0.21zm0.412-0.274c0.156-0.13 0.191-0.192 0.147-0.256-0.122-0.175-0.946-1.24-1.09-1.41l-0.152-0.177-0.0722 0.367c-0.0587 0.298-0.0577 0.386 0.0053 0.471 0.505 0.683 0.892 1.18 0.922 1.18 0.02-2e-3 0.129-0.0788 0.242-0.173zm0.566-0.417c0.109-0.0673 0.198-0.149 0.198-0.182 0-0.0329-0.152-0.272-0.338-0.531-0.186-0.259-0.417-0.584-0.514-0.722-0.0969-0.138-0.222-0.313-0.278-0.389-0.0562-0.0762-0.184-0.253-0.283-0.394-0.0997-0.14-0.192-0.244-0.205-0.232-0.013 0.013-0.0613 0.204-0.107 0.424l-0.0839 0.4 0.436 0.566c0.699 0.908 0.92 1.18 0.95 1.18 0.0156 0 0.117-0.055 0.226-0.122zm0.533-0.406c0.0816-0.0642 0.169-0.104 0.195-0.0878 0.127 0.0786-0.0294-0.207-0.591-1.08-0.338-0.524-0.778-1.2-0.977-1.51l-0.362-0.56-0.0934 0.411c-0.103 0.454-0.116 0.632-0.0482 0.662 0.0655 0.0283 0.612 0.753 1.19 1.57 0.273 0.39 0.507 0.709 0.519 0.709 0.0122 0 0.089-0.0525 0.171-0.117zm0.616-0.464 0.19-0.17-0.472-0.697c-0.26-0.383-0.653-0.961-0.875-1.28-0.222-0.323-0.534-0.778-0.694-1.01-0.16-0.233-0.31-0.413-0.334-0.398-0.0787 0.0486-0.119 0.564-0.0535 0.687 0.035 0.0653 0.292 0.468 0.572 0.894 0.28 0.426 0.707 1.08 0.949 1.46 0.242 0.377 0.46 0.687 0.484 0.687 0.0237 5.3e-4 0.129-0.075 0.233-0.168zm0.531-0.387c0.0888-0.0782 0.162-0.16 0.162-0.182s-0.599-0.94-1.33-2.04c-1.43-2.15-1.37-2.09-1.46-1.49-0.0358 0.239-0.0201 0.292 0.165 0.551 0.237 0.332 1.36 1.98 1.88 2.77 0.199 0.298 0.375 0.542 0.391 0.541 0.0161-2.4e-4 0.102-0.0644 0.191-0.143zm-23-0.227c0-0.0111-0.0595-0.0706-0.132-0.132l-0.132-0.112 0.112 0.132c0.105 0.124 0.152 0.159 0.152 0.112zm23.5-0.202 0.187-0.16-0.226-0.342c-0.124-0.188-0.392-0.598-0.594-0.91-0.202-0.313-0.609-0.939-0.903-1.39-0.294-0.452-0.706-1.09-0.915-1.42-0.209-0.331-0.394-0.602-0.411-0.602-0.0176-2.9e-4 -0.0592 0.178-0.0925 0.396-0.0506 0.331-0.0453 0.423 0.032 0.556 0.184 0.319 2.68 4.04 2.71 4.04 0.0161-5.2e-4 0.113-0.0733 0.216-0.161zm0.584-0.439c0.139-0.105 0.254-0.212 0.255-0.237 1e-3 -0.0256-0.0984-0.184-0.221-0.352-0.123-0.168-0.365-0.517-0.538-0.776-0.174-0.258-0.452-0.668-0.619-0.91-0.167-0.242-0.537-0.784-0.821-1.2s-0.691-1.01-0.904-1.32l-0.387-0.556-0.0703 0.233c-0.117 0.387-0.0927 0.528 0.15 0.89 0.126 0.188 0.46 0.699 0.742 1.13 0.282 0.436 0.581 0.899 0.666 1.03 0.0846 0.129 0.167 0.261 0.183 0.294 0.0162 0.0323 0.29 0.454 0.608 0.936 0.318 0.483 0.592 0.912 0.608 0.954 0.0413 0.108 0.0617 0.101 0.347-0.114zm0.648-0.488c0.216-0.165 0.234-0.215 0.119-0.331-0.0704-0.0704-0.174-0.215-0.788-1.1-0.268-0.386-0.449-0.643-0.673-0.957-0.586-0.824-1.75-2.47-1.93-2.73-0.113-0.164-0.262-0.374-0.331-0.466l-0.125-0.168-0.0662 0.309c-0.0731 0.341-0.0499 0.398 0.453 1.1 0.119 0.166 0.465 0.669 0.77 1.12 0.305 0.447 0.746 1.09 0.981 1.43 0.235 0.339 0.627 0.914 0.873 1.28 0.245 0.363 0.462 0.661 0.482 0.661 0.0198 0 0.124-0.0674 0.232-0.15zm-26.1-0.221c0-0.0101-0.0859-0.096-0.191-0.191l-0.191-0.173 0.173 0.191c0.161 0.178 0.209 0.218 0.209 0.173zm26.8-0.315 0.187-0.166-0.671-0.91c-0.369-0.501-0.89-1.21-1.16-1.57-0.267-0.365-0.626-0.854-0.797-1.09-0.172-0.233-0.423-0.576-0.558-0.764-0.135-0.188-0.431-0.589-0.657-0.893-0.226-0.303-0.441-0.599-0.478-0.658-0.0908-0.145-0.128-0.0925-0.205 0.289l-0.0657 0.327 0.345 0.49c0.19 0.27 0.385 0.547 0.433 0.616 0.0481 0.0692 0.299 0.422 0.557 0.785 0.258 0.362 0.509 0.715 0.557 0.785 0.048 0.0692 0.405 0.575 0.794 1.12 0.902 1.27 0.876 1.24 1.12 1.6 0.228 0.341 0.245 0.342 0.595 0.0326zm0.63-0.45 0.23-0.194-0.142-0.2c-0.0779-0.11-0.287-0.385-0.465-0.61-0.178-0.226-0.363-0.469-0.411-0.542-0.0485-0.0727-0.377-0.51-0.73-0.971-0.353-0.462-1.13-1.49-1.73-2.28-1.23-1.63-1.41-1.85-1.44-1.82-0.0123 0.0143-0.0502 0.171-0.0844 0.349l-0.0621 0.323 0.709 0.969c0.39 0.533 0.924 1.26 1.19 1.62 0.263 0.355 0.596 0.811 0.739 1.01s0.512 0.707 0.819 1.12c0.307 0.416 0.664 0.904 0.793 1.08 0.129 0.181 0.261 0.329 0.294 0.33 0.0323 2e-3 0.162-0.0855 0.288-0.192zm0.721-0.605c0.0172-0.0448-0.0755-0.22-0.206-0.389-0.592-0.768-0.763-0.99-1.18-1.53-0.245-0.318-0.511-0.666-0.592-0.772-0.34-0.447-1.39-1.82-2-2.61-0.36-0.468-0.777-1.02-0.928-1.22-0.15-0.201-0.289-0.366-0.309-0.367-0.02-2e-3 -0.0632 0.134-0.096 0.3l-0.0598 0.302 0.716 0.946c1.05 1.39 2.34 3.09 2.9 3.82 0.271 0.355 0.695 0.914 0.941 1.24l0.447 0.596 0.167-0.119c0.0919-0.0655 0.181-0.156 0.198-0.2zm0.47-0.304 0.188-0.161-1.45-1.95c-0.8-1.07-1.51-2.02-1.57-2.11-0.2-0.284-0.332-0.462-1.2-1.62-0.469-0.625-0.951-1.27-1.07-1.44-0.358-0.495-0.367-0.495-0.466 2.7e-4l-0.0865 0.435 0.191 0.256c0.267 0.357 0.713 0.949 0.77 1.02 0.0259 0.0329 0.178 0.231 0.338 0.441 0.16 0.209 0.306 0.394 0.323 0.41 0.0176 0.0162 0.281 0.36 0.586 0.764 0.305 0.404 0.569 0.747 0.587 0.764 0.0184 0.0161 0.126 0.155 0.239 0.31 0.113 0.154 0.324 0.433 0.47 0.619 0.145 0.187 0.621 0.807 1.06 1.38 0.436 0.571 0.819 1.04 0.852 1.04 0.0323-2e-3 0.143-0.0737 0.246-0.162zm0.712-0.528 0.136-0.101-0.432-0.558c-0.238-0.307-0.694-0.901-1.01-1.32-0.32-0.42-0.775-1.01-1.01-1.32-0.236-0.307-0.651-0.849-0.922-1.2-0.271-0.355-0.655-0.858-0.854-1.12-0.199-0.258-0.628-0.821-0.955-1.25-0.547-0.72-0.826-1.01-0.972-1.01-0.0313 0-0.0734 0.104-0.0937 0.231-0.0364 0.228-0.0194 0.254 1.51 2.31 2.65 3.55 3.29 4.4 3.75 5.02 0.244 0.329 0.427 0.618 0.405 0.643-0.0214 0.0249 0.0403-0.0137 0.137-0.0859 0.0969-0.0722 0.237-0.177 0.312-0.232zm-31.6-0.0339c0-0.0122-0.0462-0.0584-0.103-0.103-0.0932-0.0731-0.0952-0.071-0.0222 0.0221 0.0767 0.0978 0.125 0.129 0.125 0.0806zm32.2-0.407 0.128-0.112-0.187-0.25c-0.217-0.29-1.1-1.4-1.15-1.44-0.0386-0.0338-0.665-0.811-0.899-1.12-0.0869-0.113-0.311-0.392-0.498-0.62-0.187-0.228-0.758-0.935-1.27-1.57-0.807-1-0.992-1.2-1.4-1.48-0.258-0.178-0.482-0.324-0.496-0.324-0.0341 0 0.165 0.281 0.539 0.763 0.164 0.211 0.639 0.832 1.06 1.38 0.875 1.15 0.794 1.05 1.04 1.36 0.105 0.133 0.456 0.591 0.779 1.02 0.323 0.427 0.914 1.2 1.31 1.71 0.784 1.01 0.716 0.97 1.05 0.68zm0.668-0.485c0.0342-0.0408-0.417-0.651-1.28-1.73-0.734-0.919-1.39-1.74-1.45-1.82-0.624-0.802-0.709-0.883-1.4-1.33-0.391-0.254-0.746-0.482-0.79-0.507-0.0435-0.0249 0.0887 0.165 0.294 0.422 0.474 0.594 2.32 2.89 3.04 3.77 0.302 0.373 0.693 0.857 0.87 1.08l0.322 0.398 0.177-0.104c0.0975-0.0572 0.201-0.132 0.23-0.167zm0.584-0.499c0-0.0267-0.126-0.217-0.279-0.423-0.153-0.206-0.464-0.632-0.69-0.947-0.702-0.978-0.74-1.02-1.53-1.54-0.419-0.277-0.804-0.542-0.855-0.588-0.051-0.046-0.111-0.0837-0.134-0.0837-0.0514 0 0.674 0.954 1.16 1.53 0.0978 0.115 0.257 0.311 0.354 0.436 0.0969 0.125 0.488 0.619 0.868 1.1l0.692 0.873 0.204-0.155c0.112-0.0854 0.204-0.177 0.204-0.204zm0.582-0.379c0.165-0.118 0.299-0.233 0.299-0.254 0-0.0321-0.308-0.246-0.817-0.568-0.0517-0.0326-0.381-0.254-0.733-0.491-0.351-0.237-0.618-0.396-0.593-0.352 0.0506 0.088 0.438 0.627 1.02 1.42 0.218 0.297 0.41 0.505 0.452 0.489 0.0404-0.0155 0.208-0.125 0.373-0.243z" fill="#999" stroke-width=".0587"/>
 </g>
</svg>
